<svg width="26" height="17" viewBox="0 0 26 17" fill="none" xmlns="http://www.w3.org/2000/svg">
<path d="M7.3271 6.61619C7.3271 6.93614 7.36169 7.19556 7.42222 7.38581C7.4914 7.57605 7.57787 7.78358 7.69893 8.00841C7.74217 8.07759 7.75946 8.14677 7.75946 8.2073C7.75946 8.29378 7.70758 8.38025 7.59516 8.46672L7.05038 8.82991C6.97256 8.88179 6.89473 8.90774 6.82555 8.90774C6.73908 8.90774 6.6526 8.8645 6.56613 8.78667C6.44507 8.65696 6.3413 8.51861 6.25483 8.38025C6.16835 8.23324 6.08188 8.06894 5.98676 7.87006C5.31227 8.66561 4.46483 9.06339 3.44444 9.06339C2.71807 9.06339 2.1387 8.85585 1.71498 8.44078C1.29126 8.02571 1.07507 7.47228 1.07507 6.78049C1.07507 6.04547 1.33449 5.4488 1.86198 4.99914C2.38947 4.54948 3.0899 4.32465 3.98058 4.32465C4.27459 4.32465 4.57724 4.35059 4.89719 4.39383C5.21715 4.43706 5.54575 4.50624 5.89164 4.58407V3.95281C5.89164 3.29562 5.75328 2.83731 5.48521 2.56924C5.2085 2.30117 4.74154 2.17146 4.0757 2.17146C3.77304 2.17146 3.46174 2.20605 3.14179 2.28388C2.82183 2.3617 2.51053 2.45682 2.20787 2.57789C2.06952 2.63842 1.96575 2.67301 1.90522 2.6903C1.84469 2.7076 1.80145 2.71624 1.76686 2.71624C1.6458 2.71624 1.58527 2.62977 1.58527 2.44818V2.02446C1.58527 1.8861 1.60256 1.78233 1.6458 1.7218C1.68903 1.66127 1.76686 1.60074 1.88792 1.54021C2.19058 1.38455 2.55377 1.25484 2.97749 1.15108C3.40121 1.03866 3.85087 0.986777 4.32647 0.986777C5.3555 0.986777 6.10782 1.22026 6.59207 1.68721C7.06768 2.15417 7.3098 2.86325 7.3098 3.81446V6.61619H7.3271ZM3.81628 7.93059C4.10164 7.93059 4.39565 7.8787 4.70695 7.77494C5.01826 7.67117 5.29497 7.48093 5.52845 7.22151C5.66681 7.05721 5.77058 6.87561 5.82246 6.66808C5.87434 6.46054 5.90893 6.20977 5.90893 5.91576V5.55257C5.65816 5.49204 5.39009 5.44016 5.11338 5.40557C4.83666 5.37098 4.5686 5.35368 4.30053 5.35368C3.72116 5.35368 3.29744 5.4661 3.01208 5.69957C2.72671 5.93305 2.58836 6.26165 2.58836 6.69402C2.58836 7.10044 2.69212 7.4031 2.90831 7.61064C3.11584 7.82682 3.4185 7.93059 3.81628 7.93059V7.93059ZM10.7601 8.8645C10.6044 8.8645 10.5007 8.83856 10.4315 8.77803C10.3623 8.72614 10.3018 8.60508 10.2499 8.44078L8.21777 1.75639C8.16589 1.58344 8.13995 1.47103 8.13995 1.4105C8.13995 1.27214 8.20912 1.19431 8.34748 1.19431H9.19492C9.35922 1.19431 9.47164 1.22026 9.53217 1.28079C9.60135 1.33267 9.65323 1.45373 9.70511 1.61803L11.1579 7.34257L12.5068 1.61803C12.5501 1.44509 12.602 1.33267 12.6711 1.28079C12.7403 1.2289 12.8614 1.19431 13.017 1.19431H13.7088C13.8731 1.19431 13.9855 1.22026 14.0547 1.28079C14.1239 1.33267 14.1844 1.45373 14.219 1.61803L15.5853 7.41175L17.0813 1.61803C17.1332 1.44509 17.1937 1.33267 17.2542 1.28079C17.3234 1.2289 17.4358 1.19431 17.5915 1.19431H18.3957C18.534 1.19431 18.6119 1.26349 18.6119 1.4105C18.6119 1.45373 18.6032 1.49697 18.5946 1.54885C18.5859 1.60074 18.5686 1.66992 18.534 1.76504L16.45 8.44943C16.3981 8.62237 16.3376 8.73479 16.2684 8.78667C16.1993 8.83856 16.0868 8.87315 15.9398 8.87315H15.1962C15.0319 8.87315 14.9195 8.84721 14.8503 8.78667C14.7811 8.72614 14.7206 8.61373 14.686 8.44078L13.3456 2.86325L12.014 8.43213C11.9707 8.60508 11.9188 8.7175 11.8497 8.77803C11.7805 8.83856 11.6594 8.8645 11.5038 8.8645H10.7601ZM21.8719 9.09798C21.4223 9.09798 20.9726 9.04609 20.5402 8.94233C20.1079 8.83856 19.7706 8.72614 19.5458 8.59643C19.4074 8.51861 19.3123 8.43213 19.2777 8.35431C19.2431 8.27648 19.2258 8.19001 19.2258 8.11218V7.67117C19.2258 7.48957 19.295 7.4031 19.4247 7.4031C19.4766 7.4031 19.5285 7.41175 19.5804 7.42904C19.6323 7.44634 19.7101 7.48093 19.7966 7.51552C20.0906 7.64523 20.4105 7.74899 20.7478 7.81817C21.0937 7.88735 21.4309 7.92194 21.7768 7.92194C22.3216 7.92194 22.7453 7.82682 23.0393 7.63658C23.3333 7.44634 23.489 7.16962 23.489 6.81508C23.489 6.57296 23.4111 6.37407 23.2555 6.20977C23.0998 6.04547 22.8058 5.89846 22.3821 5.76011L21.1282 5.37098C20.497 5.17209 20.03 4.87808 19.7447 4.48895C19.4593 4.10847 19.3123 3.68475 19.3123 3.23508C19.3123 2.8719 19.3901 2.55194 19.5458 2.27523C19.7014 1.99852 19.909 1.75639 20.1684 1.56615C20.4278 1.36726 20.7218 1.22026 21.0677 1.11649C21.4136 1.01272 21.7768 0.969482 22.1573 0.969482C22.3475 0.969482 22.5464 0.97813 22.7366 1.00407C22.9355 1.03001 23.1171 1.0646 23.2987 1.09919C23.4717 1.14243 23.636 1.18567 23.7916 1.23755C23.9473 1.28943 24.0683 1.34132 24.1548 1.3932C24.2759 1.46238 24.3623 1.53156 24.4142 1.60939C24.4661 1.67856 24.4921 1.77368 24.4921 1.89475V2.30117C24.4921 2.48277 24.4229 2.57789 24.2932 2.57789C24.224 2.57789 24.1116 2.5433 23.9646 2.47412C23.4717 2.24929 22.9182 2.13687 22.3043 2.13687C21.8114 2.13687 21.4223 2.2147 21.1542 2.379C20.8861 2.5433 20.7478 2.79407 20.7478 3.14861C20.7478 3.39074 20.8342 3.59827 21.0072 3.76257C21.1801 3.92687 21.5001 4.09117 21.9584 4.23818L23.1863 4.62731C23.8089 4.82619 24.2586 5.10291 24.5266 5.45745C24.7947 5.81199 24.9244 6.21842 24.9244 6.66808C24.9244 7.03991 24.8466 7.37716 24.6996 7.67117C24.5439 7.96518 24.3364 8.2246 24.0683 8.43213C23.8003 8.64832 23.4803 8.80397 23.1085 8.91638C22.7194 9.03745 22.3129 9.09798 21.8719 9.09798V9.09798Z" fill="#252F3E"/>
<path fill-rule="evenodd" clip-rule="evenodd" d="M23.5062 13.3005C20.6612 15.4018 16.5278 16.5173 12.9738 16.5173C7.99289 16.5173 3.50493 14.6755 0.115184 11.6143C-0.152883 11.3722 0.0892418 11.0436 0.409193 11.2338C4.07566 13.3611 8.59821 14.6495 13.2764 14.6495C16.4327 14.6495 19.9003 13.9923 23.0911 12.6433C23.5667 12.4272 23.9731 12.9546 23.5062 13.3005V13.3005Z" fill="#FF9900"/>
<path fill-rule="evenodd" clip-rule="evenodd" d="M24.6909 11.9516C24.3277 11.4846 22.287 11.7268 21.3617 11.8392C21.085 11.8738 21.0418 11.6316 21.2925 11.4501C22.9182 10.3086 25.5902 10.6372 25.9015 11.0177C26.2128 11.4068 25.815 14.0788 24.2931 15.3586C24.0597 15.5575 23.8348 15.4538 23.9386 15.1944C24.2845 14.3383 25.0541 12.4099 24.6909 11.9516V11.9516Z" fill="#FF9900"/>
</svg>
