<svg width="26" height="30" viewBox="0 0 26 30" fill="none" xmlns="http://www.w3.org/2000/svg">
<path d="M26 0L23.6313 26.5351L12.9841 29.4868L2.36616 26.5392L0 0H26Z" fill="#264DE4"/>
<path d="M21.6035 24.8454L23.6277 2.16998H13V27.2307L21.6035 24.8454Z" fill="#2965F1"/>
<path d="M5.42432 12.013L5.71605 15.2679H13V12.013H5.42432Z" fill="#EBEBEB"/>
<path d="M12.9999 5.42493H12.9887H4.83813L5.13402 8.67989H12.9999V5.42493Z" fill="#EBEBEB"/>
<path d="M13 23.8528V20.4663L12.9858 20.4701L9.36074 19.4913L9.12901 16.8953H7.36753H5.86157L6.31759 22.006L12.9851 23.857L13 23.8528Z" fill="#EBEBEB"/>
<path d="M16.9969 15.2679L16.619 19.4893L12.9888 20.4691V23.8555L19.6616 22.0061L19.7105 21.4562L20.4754 12.887L20.5548 12.013L21.1424 5.42493H12.9888V8.67989H17.5753L17.2791 12.013H12.9888V15.2679H16.9969Z" fill="white"/>
</svg>
