<svg width="21" height="31" viewBox="0 0 21 31" fill="none" xmlns="http://www.w3.org/2000/svg">
<path d="M5.22582 30.4869C7.98582 30.4869 10.2258 28.2469 10.2258 25.4869V20.4869H5.22582C2.46583 20.4869 0.22583 22.7269 0.22583 25.4869C0.22583 28.2469 2.46583 30.4869 5.22582 30.4869Z" fill="#0ACF83"/>
<path d="M0.22583 15.4867C0.22583 12.7267 2.46583 10.4868 5.22582 10.4868H10.2258V20.4867H5.22582C2.46583 20.4867 0.22583 18.2467 0.22583 15.4867Z" fill="#A259FF"/>
<path d="M0.22583 5.48681C0.22583 2.72681 2.46583 0.486816 5.22582 0.486816H10.2258V10.4868H5.22582C2.46583 10.4868 0.22583 8.2468 0.22583 5.48681Z" fill="#F24E1E"/>
<path d="M10.2258 0.486816H15.2258C17.9858 0.486816 20.2258 2.72681 20.2258 5.48681C20.2258 8.2468 17.9858 10.4868 15.2258 10.4868H10.2258V0.486816Z" fill="#FF7262"/>
<path d="M20.2258 15.4867C20.2258 18.2467 17.9858 20.4867 15.2258 20.4867C12.4658 20.4867 10.2258 18.2467 10.2258 15.4867C10.2258 12.7267 12.4658 10.4868 15.2258 10.4868C17.9858 10.4868 20.2258 12.7267 20.2258 15.4867Z" fill="#1ABCFE"/>
</svg>
