<svg width="26" height="26" viewBox="0 0 26 26" fill="none" xmlns="http://www.w3.org/2000/svg">
<path d="M13.0001 0.0643311C5.82124 0.0643311 0 5.88455 0 13.0644C0 18.8082 3.7249 23.6812 8.89026 25.4002C9.53993 25.5205 9.77851 25.1182 9.77851 24.7748C9.77851 24.4648 9.76638 23.4407 9.76087 22.3544C6.14414 23.1408 5.38099 20.8206 5.38099 20.8206C4.78964 19.3179 3.93759 18.9184 3.93759 18.9184C2.75815 18.1116 4.02649 18.1281 4.02649 18.1281C5.33195 18.2198 6.01935 19.4678 6.01935 19.4678C7.17881 21.4552 9.06053 20.8806 9.80237 20.5485C9.91901 19.7082 10.256 19.1348 10.6277 18.8102C7.74028 18.4814 4.70481 17.3667 4.70481 12.3854C4.70481 10.9662 5.21266 9.80644 6.04433 8.89606C5.90934 8.56857 5.4644 7.24639 6.17025 5.45572C6.17025 5.45572 7.2619 5.10631 9.74619 6.7883C10.7831 6.50017 11.8952 6.3558 13.0001 6.35091C14.1049 6.3558 15.2178 6.50017 16.2568 6.7883C18.7381 5.10631 19.8282 5.45572 19.8282 5.45572C20.5358 7.24639 20.0907 8.56857 19.9557 8.89606C20.7892 9.80644 21.2936 10.9661 21.2936 12.3854C21.2936 17.3785 18.2524 18.478 15.3576 18.7998C15.8239 19.2032 16.2393 19.9944 16.2393 21.2072C16.2393 22.9466 16.2242 24.3465 16.2242 24.7748C16.2242 25.1207 16.4582 25.5261 17.1173 25.3984C22.2798 23.6775 26 18.8063 26 13.0644C26 5.88455 20.1796 0.0643311 13.0001 0.0643311Z" fill="#161614"/>
<path d="M4.86882 18.5832C4.84027 18.6477 4.73852 18.6671 4.64604 18.6228C4.55173 18.5804 4.49871 18.4923 4.5293 18.4275C4.55734 18.361 4.65909 18.3425 4.7532 18.3871C4.84771 18.4294 4.90155 18.5183 4.86882 18.5832V18.5832ZM5.5083 19.1537C5.44631 19.2112 5.32508 19.1845 5.2428 19.0937C5.15777 19.003 5.14186 18.8819 5.20477 18.8235C5.2687 18.7661 5.38625 18.7929 5.47149 18.8836C5.55652 18.9753 5.57304 19.0957 5.50819 19.1538L5.5083 19.1537ZM5.94702 19.8837C5.86729 19.9391 5.73699 19.8872 5.65654 19.7716C5.57691 19.6561 5.57691 19.5174 5.65828 19.4618C5.73903 19.4063 5.86729 19.4562 5.94885 19.5709C6.02838 19.6885 6.02838 19.8272 5.94692 19.8838L5.94702 19.8837ZM6.68886 20.7293C6.61759 20.8078 6.46588 20.7868 6.35475 20.6795C6.24117 20.5747 6.20946 20.426 6.28093 20.3473C6.35301 20.2686 6.50564 20.2908 6.61759 20.3971C6.73046 20.5017 6.76492 20.6516 6.68896 20.7293H6.68886ZM7.64767 21.0148C7.61637 21.1165 7.47016 21.1628 7.32293 21.1196C7.17591 21.075 7.07966 20.9557 7.10933 20.8528C7.13992 20.7504 7.28674 20.7022 7.43509 20.7484C7.58191 20.7928 7.67836 20.9112 7.64777 21.0148H7.64767ZM8.73902 21.1358C8.74269 21.243 8.61779 21.3319 8.46322 21.3339C8.30774 21.3372 8.18203 21.2505 8.18039 21.1451C8.18039 21.0368 8.30244 20.9487 8.45782 20.9461C8.61239 20.9431 8.73902 21.0292 8.73902 21.1358V21.1358ZM9.811 21.0947C9.82955 21.1993 9.72209 21.3068 9.56865 21.3353C9.41775 21.3628 9.27807 21.2983 9.2588 21.1946C9.24004 21.0873 9.34954 20.98 9.50013 20.9522C9.65388 20.9254 9.79142 20.9883 9.811 21.0947" fill="#161614"/>
</svg>
