<svg width="26" height="11" viewBox="0 0 26 11" fill="none" xmlns="http://www.w3.org/2000/svg">
<path d="M1.96214 3.82777C1.91151 3.82777 1.89885 3.80245 1.92417 3.76447L2.19001 3.42268C2.21532 3.3847 2.27862 3.35938 2.32925 3.35938H6.84851C6.89915 3.35938 6.91181 3.39736 6.88649 3.43534L6.67129 3.76447C6.64597 3.80245 6.58268 3.84043 6.5447 3.84043L1.96214 3.82777ZM0.050636 4.9924C0 4.9924 -0.012659 4.96708 0.012659 4.9291L0.278498 4.58731C0.303816 4.54933 0.367111 4.52401 0.417747 4.52401H6.19025C6.24088 4.52401 6.2662 4.56199 6.25354 4.59997L6.15227 4.90378C6.13961 4.95442 6.08898 4.97974 6.03834 4.97974L0.050636 4.9924ZM3.11411 6.15702C3.06348 6.15702 3.05082 6.11905 3.07614 6.08107L3.25336 5.76459C3.27868 5.72662 3.32932 5.68864 3.37995 5.68864H5.91175C5.96239 5.68864 5.9877 5.72662 5.9877 5.77725L5.96239 6.08107C5.96239 6.1317 5.91175 6.16968 5.87377 6.16968L3.11411 6.15702ZM16.2541 3.59991C15.4566 3.80245 14.9123 3.95436 14.1274 4.1569C13.9376 4.20754 13.9249 4.2202 13.7603 4.03031C13.5704 3.81511 13.4312 3.67586 13.1654 3.54927C12.3678 3.15684 11.5956 3.27077 10.8741 3.73915C10.0133 4.29615 9.5702 5.11899 9.58286 6.14436C9.59552 7.15708 10.2918 7.99258 11.2918 8.13183C12.1526 8.24576 12.8742 7.94194 13.4438 7.29633C13.5578 7.15708 13.6591 7.00518 13.7856 6.82795H11.3425C11.0766 6.82795 11.0133 6.66338 11.1019 6.44818C11.2665 6.05575 11.5703 5.39748 11.7475 5.06835C11.7855 4.9924 11.8741 4.86581 12.064 4.86581H16.6719C16.6466 5.2076 16.6466 5.54939 16.5959 5.89118C16.4567 6.80263 16.1149 7.63812 15.5579 8.37235C14.6465 9.57495 13.4565 10.3218 11.9501 10.5244C10.7095 10.6889 9.55754 10.4484 8.54482 9.68888C7.60805 8.97998 7.07638 8.04321 6.93713 6.87859C6.77256 5.49876 7.17765 4.25817 8.01314 3.1695C8.91193 1.99221 10.1019 1.24533 11.5577 0.979494C12.7476 0.764291 13.8869 0.90354 14.9123 1.59978C15.5832 2.04285 16.0643 2.65048 16.3807 3.3847C16.4567 3.49863 16.4061 3.56193 16.2541 3.59991Z" fill="#00ACD7"/>
<path d="M20.4443 10.6004C19.2923 10.575 18.2416 10.2459 17.3555 9.48636C16.6086 8.84076 16.1402 8.01792 15.9883 7.04318C15.7605 5.61271 16.1529 4.34681 17.0137 3.22016C17.9378 2.0049 19.0518 1.37195 20.5582 1.10611C21.8494 0.87825 23.0647 1.00484 24.166 1.75172C25.1661 2.43531 25.7864 3.35941 25.9509 4.57468C26.1661 6.28364 25.6724 7.67613 24.4951 8.86607C23.6597 9.71422 22.6343 10.2459 21.457 10.4864C21.1152 10.5497 20.7734 10.5624 20.4443 10.6004V10.6004ZM23.4571 5.48612C23.4445 5.32156 23.4445 5.19497 23.4191 5.06838C23.1913 3.81514 22.0393 3.10623 20.8367 3.38473C19.6594 3.65057 18.8999 4.39745 18.6214 5.58739C18.3935 6.5748 18.8746 7.57486 19.786 7.97994C20.4823 8.28376 21.1785 8.24578 21.8494 7.90399C22.8495 7.38497 23.3938 6.5748 23.4571 5.48612V5.48612Z" fill="#00ACD7"/>
</svg>
