<svg width="26" height="30" viewBox="0 0 26 30" fill="none" xmlns="http://www.w3.org/2000/svg">
<path fill-rule="evenodd" clip-rule="evenodd" d="M15.496 3.48434L21.503 6.95269C21.6764 6.76919 21.8754 6.6117 22.0939 6.4851C23.3397 5.76888 24.9287 6.19412 25.6523 7.43999C26.3685 8.68585 25.9433 10.2748 24.6974 10.9984C24.4806 11.1233 24.247 11.2163 24.0037 11.2747V18.2139C24.2443 18.2724 24.4754 18.3648 24.69 18.4884C25.9433 19.212 26.3685 20.801 25.6449 22.0469C24.9287 23.2927 23.3322 23.7179 22.0864 23.0018C21.845 22.8633 21.6276 22.6868 21.4425 22.479L15.472 25.9261C15.5595 26.1908 15.6039 26.4679 15.6036 26.7467C15.6036 28.179 14.4399 29.3503 13 29.3503C11.5602 29.3503 10.3965 28.1864 10.3965 26.7467C10.3965 26.4908 10.4332 26.2436 10.5018 26.0101L4.49639 22.5427C4.32487 22.7226 4.12865 22.8771 3.91363 23.0018C2.66035 23.7179 1.07131 23.2927 0.355088 22.0469C-0.361028 20.801 0.0642136 19.212 1.30998 18.4884C1.52459 18.3648 1.75569 18.2723 1.99633 18.2138V11.2747C1.75303 11.2163 1.51938 11.1233 1.30256 10.9984C0.0566979 10.2823 -0.368543 8.68585 0.347674 7.43999C1.06389 6.19412 2.66025 5.76888 3.90611 6.4851C4.12336 6.61103 4.3214 6.76751 4.49416 6.94975L10.5029 3.48048C10.4321 3.24007 10.3962 2.99071 10.3965 2.74009C10.3965 1.30044 11.5602 0.136536 13 0.136536C14.4399 0.136536 15.6036 1.30034 15.6036 2.74009C15.6036 2.99887 15.566 3.24861 15.496 3.48434ZM14.8702 4.55298L20.8915 8.02946C20.7956 8.36462 20.7681 8.71564 20.8106 9.06164C20.8532 9.40765 20.9648 9.74156 21.139 10.0435C21.5055 10.6811 22.1026 11.1039 22.7653 11.2686V18.2165C22.7315 18.2247 22.6979 18.2337 22.6645 18.2433L14.8002 4.62255C14.824 4.5998 14.8473 4.57654 14.8702 4.55298ZM11.2014 4.62407L3.33726 18.2446C3.30326 18.2348 3.26906 18.2256 3.23468 18.2172V11.2686C3.89738 11.1039 4.49446 10.6811 4.861 10.0435C5.03553 9.74098 5.1473 9.40637 5.18965 9.05966C5.232 8.71295 5.20406 8.36127 5.10749 8.0256L11.1271 4.55013C11.1514 4.57522 11.1761 4.6 11.2014 4.62407ZM13.7275 5.24106L21.5898 18.8585C21.4097 19.0304 21.2554 19.2273 21.1315 19.4432C21.0079 19.6578 20.9155 19.889 20.8571 20.1296H5.14314C5.08461 19.8889 4.99215 19.6578 4.86852 19.4432C4.74421 19.2288 4.59013 19.0331 4.41088 18.8619L12.2747 5.24167C12.5105 5.30956 12.7547 5.34388 13 5.34364C13.2526 5.34364 13.4966 5.30789 13.7275 5.24106ZM14.9254 24.9927L20.9076 21.5388C20.8897 21.4824 20.8737 21.4254 20.8596 21.3679H5.13979C5.13146 21.4018 5.12242 21.4353 5.11277 21.4687L11.1242 24.9396C11.367 24.6872 11.6583 24.4865 11.9807 24.3496C12.3031 24.2127 12.6498 24.1425 13 24.1431C13.3625 24.1425 13.721 24.2178 14.0526 24.3641C14.3843 24.5104 14.6816 24.7245 14.9254 24.9927Z" fill="#E535AB"/>
</svg>
