<svg width="26" height="28" viewBox="0 0 26 28" fill="none" xmlns="http://www.w3.org/2000/svg">
<path d="M25.9853 6.41566C25.995 6.45134 25.9999 6.48813 26 6.52509V12.2703C26 12.344 25.9805 12.4165 25.9436 12.4803C25.9066 12.5441 25.8535 12.597 25.7895 12.6337L20.9675 15.4099V20.9127C20.9675 21.0625 20.8879 21.2007 20.758 21.2761L10.6924 27.0705C10.6694 27.0836 10.6442 27.092 10.6191 27.1009C10.6097 27.104 10.6008 27.1098 10.5908 27.1124C10.5204 27.1309 10.4465 27.1309 10.3761 27.1124C10.3646 27.1093 10.3541 27.103 10.3431 27.0988C10.3201 27.0904 10.296 27.0831 10.274 27.0705L0.210497 21.2761C0.146566 21.2394 0.0934462 21.1864 0.0564909 21.1226C0.0195356 21.0589 5.0655e-05 20.9864 0 20.9127L0 3.6771C0 3.6394 0.00523624 3.60275 0.0146615 3.56714C0.0178032 3.5551 0.0251339 3.5441 0.0293229 3.53206C0.0371773 3.51007 0.044508 3.48755 0.0560277 3.46713C0.0638821 3.45351 0.0754018 3.44252 0.084827 3.42995C0.0968703 3.4132 0.107866 3.39592 0.122004 3.38125C0.134048 3.36921 0.149756 3.36031 0.163371 3.34984C0.178556 3.33727 0.19217 3.32366 0.209449 3.31371H0.209973L5.24199 0.416495C5.30571 0.379831 5.37793 0.360535 5.45144 0.360535C5.52496 0.360535 5.59718 0.379831 5.66089 0.416495L10.6929 3.31371H10.694C10.7107 3.32418 10.7249 3.33727 10.74 3.34931C10.7537 3.35979 10.7688 3.36921 10.7809 3.38073C10.7955 3.39592 10.806 3.4132 10.8186 3.42995C10.8275 3.44252 10.8395 3.45351 10.8469 3.46713C10.8589 3.48807 10.8657 3.51007 10.8741 3.53206C10.8783 3.5441 10.8856 3.5551 10.8888 3.56766C10.8984 3.60335 10.9033 3.64014 10.9034 3.6771V14.4423L15.0966 12.0279V6.52457C15.0966 6.48792 15.1018 6.45074 15.1112 6.41566C15.1149 6.40309 15.1217 6.39209 15.1259 6.38005C15.1343 6.35806 15.1416 6.33554 15.1531 6.31512C15.161 6.30151 15.1725 6.29051 15.1814 6.27794C15.194 6.26119 15.2045 6.24391 15.2191 6.22925C15.2312 6.2172 15.2463 6.2083 15.26 6.19783C15.2757 6.18526 15.2893 6.17165 15.306 6.1617H15.3066L20.3391 3.26449C20.4028 3.22777 20.475 3.20845 20.5486 3.20845C20.6221 3.20845 20.6943 3.22777 20.758 3.26449L25.79 6.1617C25.8078 6.17217 25.8214 6.18526 25.8372 6.1973C25.8502 6.20778 25.8654 6.2172 25.8775 6.22872C25.8921 6.24391 25.9026 6.26119 25.9152 6.27794C25.9246 6.29051 25.9361 6.30151 25.9434 6.31512C25.9555 6.33554 25.9623 6.35806 25.9707 6.38005C25.9754 6.39209 25.9822 6.40309 25.9853 6.41566V6.41566ZM25.1612 12.0279V7.25031L23.4002 8.26405L20.9675 9.66474V14.4423L25.1617 12.0279H25.1612ZM20.1291 20.6703V15.8896L17.7362 17.2562L10.9029 21.1562V25.9819L20.1291 20.6703ZM0.838845 4.40232V20.6703L10.064 25.9814V21.1567L5.24461 18.4292L5.24304 18.4281L5.24095 18.4271C5.22471 18.4176 5.2111 18.404 5.19592 18.3925C5.18283 18.382 5.16764 18.3737 5.15612 18.3621L5.15507 18.3606C5.14146 18.3475 5.13203 18.3312 5.12051 18.3166C5.11004 18.3024 5.09747 18.2904 5.0891 18.2757L5.08857 18.2742C5.07915 18.2585 5.07339 18.2396 5.06658 18.2218C5.05977 18.2061 5.05087 18.1914 5.04668 18.1747V18.1742C5.04145 18.1543 5.0404 18.1333 5.0383 18.1129C5.03621 18.0972 5.03202 18.0815 5.03202 18.0658V6.81675L2.59979 5.41553L0.838845 4.40284V4.40232ZM5.45197 1.26372L1.25931 3.6771L5.45092 6.09048L9.64305 3.67658L5.45092 1.26372H5.45197ZM7.63234 16.3252L10.0646 14.9251V4.40232L8.30362 5.41606L5.87087 6.81675V17.3395L7.63234 16.3252ZM20.5486 4.11171L16.3564 6.52509L20.5486 8.93848L24.7402 6.52457L20.5486 4.11171ZM20.1291 9.66474L17.6964 8.26405L15.9354 7.25031V12.0279L18.3677 13.428L20.1291 14.4423V9.66474ZM10.4829 20.431L16.6319 16.9206L19.7055 15.1665L15.5165 12.7546L10.6934 15.5314L6.29762 18.0621L10.4829 20.431Z" fill="#FF2D20"/>
</svg>
