<svg width="12" height="26" viewBox="0 0 12 26" fill="none" xmlns="http://www.w3.org/2000/svg">
<path d="M5.53637 0.311646L6.20351 1.56468C6.3535 1.79591 6.51599 2.00058 6.70738 2.19119C7.2685 2.74531 7.79153 3.33672 8.2729 3.96137C9.40329 5.44564 10.1657 7.09395 10.7102 8.87663C11.0368 9.96561 11.2141 11.0827 11.2274 12.2123C11.2821 15.5894 10.1243 18.4892 7.79012 20.8992C7.41044 21.2813 7.00026 21.632 6.56365 21.9475C6.33241 21.9475 6.22304 21.7702 6.12774 21.6069C5.95418 21.3042 5.83867 20.9717 5.78714 20.6265C5.70511 20.218 5.65121 19.8094 5.67777 19.3876V19.197C5.65902 19.1563 5.45513 0.407732 5.53637 0.311646V0.311646Z" fill="#599636"/>
<path d="M5.53638 0.270284C5.50903 0.2156 5.48169 0.257003 5.45435 0.283564C5.46763 0.556981 5.37233 0.800713 5.22312 1.03351C5.05907 1.26474 4.8419 1.44207 4.62394 1.63268C3.41309 2.68104 2.46004 3.94736 1.69681 5.36366C0.68126 7.26977 0.157861 9.31259 0.00943425 11.4632C-0.0585295 12.2389 0.254729 14.9762 0.499242 15.766C1.16638 17.8627 2.36473 19.6196 3.91696 21.1445C4.29818 21.5117 4.70597 21.8523 5.12781 22.1796C5.25046 22.1796 5.26374 22.0702 5.29186 21.989C5.34563 21.8151 5.38663 21.6376 5.41451 21.4578L5.68793 19.4157L5.53638 0.270284Z" fill="#6CAC48"/>
<path d="M6.20351 22.7772C6.23085 22.4647 6.38084 22.2054 6.54411 21.9468C6.38006 21.8788 6.2582 21.7437 6.16289 21.5929C6.08071 21.4502 6.01268 21.2997 5.95978 21.1437C5.76917 20.5719 5.72855 19.972 5.67386 19.3876V19.0338C5.6059 19.0884 5.59184 19.5509 5.59184 19.6196C5.55209 20.2372 5.47013 20.8514 5.34654 21.4578C5.30592 21.7031 5.27858 21.9476 5.12781 22.1655C5.12781 22.1929 5.12781 22.2202 5.14109 22.2608C5.38638 22.9827 5.45357 23.7178 5.49497 24.4669V24.7403C5.49497 25.0669 5.48169 24.9981 5.75276 25.1075C5.86213 25.1481 5.984 25.1622 6.09337 25.2434C6.17539 25.2434 6.18867 25.1755 6.18867 25.1208L6.14805 24.6716V23.4186C6.13477 23.1998 6.17539 22.9827 6.20273 22.778L6.20351 22.7772Z" fill="#C2BFBF"/>
</svg>
