<svg width="26" height="27" viewBox="0 0 26 27" fill="none" xmlns="http://www.w3.org/2000/svg">
<path d="M23.9487 20.8272C22.5341 20.7914 21.4377 20.935 20.5182 21.3299C20.2529 21.4375 19.8284 21.4376 19.7931 21.7787C19.9345 21.9223 19.9522 22.1557 20.076 22.353C20.2885 22.712 20.6595 23.1967 20.9956 23.4481C21.3669 23.7352 21.7383 24.0224 22.1272 24.2737C22.8169 24.7045 23.5951 24.9558 24.267 25.3866C24.6562 25.6377 25.045 25.9611 25.4341 26.2302C25.6286 26.3736 25.7523 26.6072 26 26.6969V26.6431C25.8761 26.4815 25.8407 26.2482 25.717 26.0687C25.5404 25.8891 25.3633 25.7276 25.1865 25.5481C24.6737 24.8481 24.0371 24.2378 23.3475 23.7352C22.7817 23.3403 21.5437 22.8018 21.3139 22.1376C21.3139 22.1376 21.2961 22.1198 21.2785 22.1018C21.6675 22.0659 22.1272 21.9223 22.4987 21.8146C23.0999 21.6529 23.6481 21.6889 24.267 21.5273C24.5499 21.4555 24.8329 21.3658 25.1157 21.276V21.1146C24.7976 20.7914 24.5677 20.3607 24.2317 20.0555C23.3298 19.2655 22.3394 18.4938 21.3139 17.8476C20.7657 17.4886 20.0582 17.2552 19.4747 16.9501C19.2627 16.8423 18.9089 16.7885 18.7852 16.609C18.4668 16.2142 18.2899 15.6937 18.0601 15.2269C17.5474 14.2396 17.0522 13.1447 16.61 12.1037C16.2919 11.4036 16.0973 10.7035 15.7083 10.0574C13.8869 7.00588 11.9063 5.15704 8.86487 3.34399C8.21052 2.96711 7.43246 2.80554 6.60136 2.60817C6.15943 2.59012 5.71719 2.55431 5.27516 2.53626C4.9922 2.4106 4.70923 2.06961 4.46164 1.90805C3.45388 1.26178 0.854244 -0.138166 0.111563 1.71068C-0.36594 2.87735 0.818975 4.02606 1.22553 4.61858C1.52639 5.03137 1.91526 5.49802 2.12748 5.96477C2.25128 6.26975 2.28655 6.59309 2.41035 6.91612C2.69341 7.70569 2.95849 8.58544 3.32998 9.32147C3.52452 9.69836 3.73664 10.0932 3.98424 10.4343C4.12572 10.6317 4.37321 10.7215 4.42637 11.0445C4.17888 11.4036 4.16109 11.9421 4.01951 12.3908C3.38294 14.4192 3.63063 16.9322 4.53238 18.422C4.81524 18.8706 5.48729 19.8581 6.38913 19.481C7.18497 19.158 7.00812 18.1348 7.23782 17.2373C7.29108 17.0217 7.25571 16.8783 7.36172 16.7347V16.7707C7.60932 17.2731 7.85681 17.758 8.08672 18.2605C8.63496 19.1399 9.58977 20.0555 10.3855 20.6659C10.8101 20.9888 11.146 21.5453 11.6765 21.7428V21.6888H11.6411C11.5349 21.5272 11.3758 21.4555 11.2344 21.3298C10.9162 21.0068 10.5624 20.6119 10.3149 20.2529C9.57228 19.2476 8.91783 18.1347 8.33431 16.9859C8.05145 16.4296 7.80375 15.8192 7.57395 15.2628C7.46773 15.0472 7.46773 14.7243 7.29098 14.6167C7.0257 15.0115 6.63673 15.3526 6.44219 15.8372C6.10637 16.609 6.0709 17.5604 5.9471 18.5475C5.87636 18.5657 5.91163 18.5475 5.87626 18.5836C5.31053 18.4398 5.116 17.8476 4.90367 17.345C4.37311 16.0706 4.28468 14.0243 4.7446 12.5524C4.8684 12.1754 5.39896 10.9908 5.18674 10.6318C5.08062 10.2907 4.72682 10.0932 4.53238 9.82402C4.30257 9.48294 4.05488 9.0523 3.89581 8.6752C3.47136 7.67 3.25914 6.55708 2.79942 5.55188C2.5872 5.08512 2.21601 4.60063 1.91526 4.16978C1.57934 3.68518 1.20795 3.34399 0.942671 2.76963C0.854346 2.57227 0.730447 2.24913 0.871929 2.03371C0.9073 1.89009 0.97794 1.83634 1.11952 1.80044C1.34943 1.60286 2.00379 1.85419 2.23349 1.9619C2.88785 2.23097 3.43599 2.48251 3.98424 2.85939C4.23173 3.03891 4.49701 3.38 4.81524 3.46976H5.18664C5.75256 3.59532 6.38903 3.50566 6.91959 3.66713C7.85691 3.97221 8.7056 4.42101 9.46607 4.90571C11.7826 6.39551 13.6922 8.51364 14.9833 11.0445C15.1955 11.4572 15.2838 11.8344 15.4784 12.2651C15.8499 13.1447 16.3096 14.0422 16.6808 14.9038C17.0522 15.7473 17.4058 16.609 17.9363 17.3092C18.2016 17.6859 19.2625 17.8835 19.74 18.081C20.0937 18.2424 20.642 18.3862 20.9602 18.5835C21.5614 18.9603 22.1626 19.3914 22.7285 19.8041C23.0115 20.0195 23.8955 20.4683 23.9487 20.8272V20.8272Z" fill="#00546B"/>
</svg>
