<svg width="26" height="27" viewBox="0 0 26 27" fill="none" xmlns="http://www.w3.org/2000/svg">
<path fill-rule="evenodd" clip-rule="evenodd" d="M15.3091 0.794434C15.1211 0.794434 14.9465 0.834722 14.7854 0.888437C15.1278 1.11673 15.3158 1.41889 15.4098 1.76133C15.4166 1.80833 15.43 1.8419 15.4367 1.8889C15.4434 1.92919 15.4501 1.96948 15.4501 2.00977C15.477 2.60064 15.2957 2.6745 15.1681 3.02366C14.9734 3.47354 15.0271 3.95698 15.2621 4.34643C15.2822 4.39343 15.3091 4.44714 15.3427 4.49414C15.0875 2.79537 16.5043 2.54021 16.7662 2.00977C16.7863 1.54646 16.4036 1.23759 16.1014 1.02273C15.8127 0.84815 15.5508 0.794434 15.3091 0.794434ZM17.4443 1.17716C17.4175 1.3316 17.4376 1.29131 17.4309 1.37188C17.4242 1.4256 17.4242 1.49275 17.4175 1.54646C17.4041 1.60018 17.3906 1.65389 17.3705 1.70761C17.3571 1.76133 17.3369 1.81504 17.3168 1.86876C17.2899 1.92248 17.2698 1.96948 17.2429 2.02319C17.2228 2.05006 17.2093 2.07691 17.1892 2.10377C17.1758 2.12391 17.1623 2.14406 17.1489 2.1642C17.1153 2.2112 17.0818 2.2582 17.0482 2.29849C17.0079 2.33878 16.9743 2.38578 16.9273 2.41935V2.42608C16.887 2.45965 16.8467 2.49994 16.7997 2.53351C16.6587 2.64094 16.4976 2.72152 16.3499 2.82223C16.3029 2.85581 16.2559 2.88267 16.2156 2.92295C16.1686 2.95652 16.1283 2.9901 16.088 3.03038C16.041 3.07067 16.0074 3.11096 15.9671 3.15796C15.9336 3.19825 15.8933 3.24525 15.8664 3.29225C15.8329 3.33925 15.7993 3.38626 15.7724 3.43326C15.7456 3.48697 15.7254 3.53398 15.6986 3.58769C15.6784 3.64141 15.6583 3.68841 15.6448 3.74212C15.6247 3.80256 15.6113 3.85627 15.5978 3.90999C15.5911 3.93686 15.5911 3.97042 15.5844 3.99728C15.5777 4.02415 15.5777 4.05099 15.571 4.07785C15.571 4.13157 15.5643 4.192 15.5643 4.24571C15.5643 4.286 15.5643 4.32629 15.571 4.36658C15.571 4.42029 15.5777 4.47401 15.5912 4.53444C15.5979 4.58816 15.6113 4.64187 15.6247 4.69559C15.6449 4.74931 15.6583 4.80302 15.6784 4.85674C15.6919 4.89031 15.712 4.92388 15.7254 4.95074L14.1811 4.35315C13.9192 4.27929 13.6641 4.21214 13.4022 4.15171C13.2612 4.11814 13.1202 4.08457 12.9792 4.05099C12.5763 3.97042 12.1667 3.90999 11.7572 3.8697C11.7437 3.8697 11.737 3.86298 11.7236 3.86298C11.3207 3.82269 10.9245 3.80255 10.5217 3.80255C10.2262 3.80255 9.93079 3.81597 9.64207 3.83612C9.23248 3.86299 8.82289 3.9167 8.41331 3.98384C8.31259 3.99726 8.21187 4.01742 8.11115 4.03756C7.903 4.07784 7.70157 4.12485 7.50685 4.17185C7.40613 4.19872 7.30541 4.22557 7.20469 4.25242C7.10397 4.29271 7.00997 4.33971 6.91596 4.38C6.8421 4.41357 6.76825 4.44714 6.69439 4.48072C6.68097 4.48744 6.66752 4.48744 6.66081 4.49414C6.59367 4.52771 6.53324 4.55456 6.47281 4.58814C6.45266 4.59486 6.43923 4.60156 6.4258 4.60828C6.35194 4.64186 6.27809 4.68214 6.21765 4.71572C6.17065 4.73586 6.12365 4.76272 6.08336 4.78286C6.06322 4.79628 6.03636 4.80973 6.02293 4.81643C5.9625 4.85001 5.90207 4.88358 5.84835 4.91715C5.78792 4.95072 5.73421 4.9843 5.6872 5.01787C5.6402 5.05144 5.5932 5.0783 5.55291 5.11187C5.54619 5.1186 5.53949 5.1186 5.53277 5.12529C5.49248 5.15216 5.44548 5.18572 5.40519 5.2193C5.40519 5.2193 5.39847 5.22602 5.39178 5.23272C5.3582 5.25958 5.32463 5.28643 5.29106 5.31329C5.27764 5.32001 5.26419 5.33343 5.25077 5.34016C5.2172 5.36703 5.18363 5.40059 5.15005 5.42745C5.14333 5.44087 5.12991 5.44759 5.12318 5.45432C5.0829 5.4946 5.04261 5.52817 5.00232 5.56846C4.9956 5.56846 4.9956 5.57519 4.9889 5.58188C4.94862 5.61545 4.90833 5.65574 4.86804 5.69603C4.86132 5.70275 4.86132 5.70945 4.85462 5.70945C4.82105 5.74302 4.78748 5.77659 4.7539 5.81688C4.74048 5.8303 4.72033 5.84375 4.7069 5.85716C4.67333 5.89745 4.63304 5.93774 4.59276 5.97803C4.58603 5.99145 4.57261 5.99817 4.56589 6.0116C4.51217 6.06532 4.46517 6.11903 4.41145 6.17275C4.40473 6.17947 4.39803 6.18617 4.39131 6.19289C4.28388 6.30704 4.16973 6.42119 4.04887 6.52191C3.92801 6.62934 3.80043 6.73006 3.67285 6.81734C3.53856 6.91135 3.41099 6.99192 3.26998 7.0725C3.13569 7.14635 2.99468 7.2135 2.84696 7.27393C2.70596 7.33437 2.55824 7.38808 2.41052 7.43508C2.12851 7.49551 1.83978 7.60966 1.59134 7.6298C1.53763 7.6298 1.4772 7.64322 1.42348 7.64995C1.36305 7.66336 1.30934 7.67682 1.25562 7.69024C1.2019 7.71038 1.14819 7.73052 1.09447 7.75066C1.04075 7.77081 0.987038 7.79767 0.933322 7.82453C0.886319 7.8581 0.832604 7.88496 0.7856 7.91853C0.7386 7.9521 0.691597 7.99239 0.651309 8.03268C0.60431 8.06625 0.557306 8.11325 0.517019 8.15354C0.476731 8.20054 0.436444 8.24083 0.402872 8.28783C0.3693 8.34154 0.329012 8.38855 0.302153 8.44226C0.268581 8.48927 0.235009 8.54298 0.20815 8.59669C0.181281 8.65713 0.154434 8.71084 0.13429 8.77128C0.114147 8.82499 0.0940028 8.88542 0.073859 8.94585C0.0604405 8.99957 0.0469902 9.05329 0.0402872 9.107C0.0402872 9.11373 0.0335623 9.12042 0.0335623 9.12714C0.0201436 9.18758 0.0201436 9.26815 0.0134185 9.30844C0.0066936 9.35544 0 9.39573 0 9.44273C0 9.4696 2.09029e-08 9.50316 0.00672489 9.53002C0.0134498 9.57702 0.0201433 9.61731 0.0335937 9.6576C0.0470123 9.69788 0.0604626 9.73817 0.0805938 9.77846V9.78518C0.100737 9.82547 0.127597 9.86576 0.154453 9.90604C0.181322 9.94633 0.208172 9.98662 0.241744 10.0269C0.275316 10.0605 0.315603 10.1008 0.355891 10.1343C0.396178 10.1746 0.436466 10.2082 0.483466 10.2418C0.644616 10.3828 0.684903 10.4298 0.893054 10.5372C0.926626 10.5574 0.960201 10.5708 1.00049 10.5909C1.00721 10.5909 1.01391 10.5977 1.02063 10.5977C1.02063 10.6111 1.02063 10.6178 1.02736 10.6312C1.03408 10.6849 1.0475 10.7387 1.06093 10.7924C1.07435 10.8528 1.09451 10.9065 1.11465 10.9535C1.13479 10.9938 1.14822 11.0341 1.16836 11.0744C1.17509 11.0878 1.18178 11.1013 1.18851 11.108C1.21538 11.1617 1.24222 11.2087 1.26908 11.2557C1.30266 11.3027 1.33623 11.3497 1.3698 11.3967C1.40337 11.437 1.44366 11.484 1.48395 11.5243C1.52423 11.5645 1.56452 11.5981 1.61152 11.6384C1.61152 11.6384 1.61825 11.6451 1.62494 11.6451C1.66523 11.6787 1.70552 11.7123 1.74581 11.7391C1.79281 11.7727 1.83981 11.7996 1.89352 11.8264C1.94053 11.8533 1.99424 11.8801 2.04796 11.9003C2.08825 11.9204 2.13525 11.9339 2.18225 11.9473C2.18898 11.954 2.19567 11.954 2.20912 11.9607C2.23599 11.9674 2.26955 11.9741 2.29641 11.9809C2.27626 12.3434 2.26954 12.6859 2.32327 12.8067C2.3837 12.941 2.67914 12.5314 2.97458 12.0614C2.9343 12.5247 2.90744 13.0686 2.97458 13.2298C3.04844 13.3976 3.45132 12.8739 3.80047 12.2964C8.56108 11.1953 12.9054 14.4854 13.362 19.1318C13.2747 18.4067 12.3817 18.0038 11.9721 18.1045C11.7706 18.6014 11.4282 19.2393 10.8776 19.6354C10.9246 19.1923 10.9045 18.7357 10.8105 18.2925C10.6627 18.9103 10.374 19.4877 9.97785 19.9846C9.33997 20.0316 8.70209 19.7227 8.36636 19.2594C8.33949 19.2393 8.33278 19.199 8.31264 19.1721C8.2925 19.1251 8.27235 19.0781 8.25893 19.0311C8.23878 18.9841 8.22535 18.9371 8.21864 18.8901C8.21191 18.8431 8.21191 18.7961 8.21191 18.7424C8.21191 18.7088 8.21191 18.6753 8.21191 18.6417C8.21864 18.5947 8.23206 18.5477 8.24548 18.5007C8.2589 18.4537 8.27235 18.4067 8.29249 18.3597C8.31936 18.3127 8.33949 18.2657 8.37306 18.2187C8.48721 17.8964 8.48721 17.6345 8.27906 17.4801C8.23877 17.4532 8.19848 17.4331 8.15148 17.4129C8.12461 17.4062 8.09105 17.3928 8.06419 17.386C8.04405 17.3793 8.03062 17.3726 8.01048 17.3659C7.96347 17.3525 7.91647 17.339 7.86947 17.3323C7.82247 17.3189 7.77547 17.3122 7.72847 17.3122C7.68147 17.3055 7.62775 17.2988 7.58075 17.2988C7.54717 17.2988 7.5136 17.3055 7.48003 17.3055C7.42631 17.3055 7.37931 17.3122 7.33231 17.3256C7.28531 17.3324 7.23831 17.3391 7.1913 17.3525C7.1443 17.3659 7.0973 17.3794 7.0503 17.3995C7.0033 17.4197 6.96301 17.4398 6.91601 17.4599C6.87572 17.4801 6.83543 17.5069 6.78843 17.5271C5.22394 18.5477 6.15726 20.9381 7.22487 21.6297C6.822 21.7035 6.41242 21.7908 6.29827 21.8781C6.29154 21.8848 6.28485 21.8915 6.28485 21.8915C6.57358 22.0661 6.87573 22.2138 7.19131 22.3414C7.62104 22.4824 8.07763 22.61 8.27907 22.6637V22.6704C8.83638 22.7846 9.4004 22.8249 9.97113 22.7913C12.9457 22.5831 15.3831 20.3203 15.8262 17.3391C15.8396 17.3995 15.8531 17.4532 15.8665 17.5137C15.8866 17.6345 15.9135 17.7621 15.9269 17.8897V17.8964C15.9403 17.9568 15.9471 18.0173 15.9538 18.071V18.0978C15.9605 18.1583 15.9672 18.2187 15.9672 18.2724C15.9739 18.3463 15.9806 18.4201 15.9806 18.494V18.6014C15.9806 18.635 15.9874 18.6753 15.9874 18.7089C15.9874 18.7492 15.9806 18.7894 15.9806 18.8297V18.9237C15.9806 18.9707 15.9739 19.011 15.9739 19.058C15.9739 19.0849 15.9739 19.1117 15.9672 19.1453C15.9672 19.1923 15.9605 19.2393 15.9605 19.293C15.9537 19.3132 15.9537 19.3333 15.9537 19.3535C15.947 19.4072 15.9403 19.4542 15.9336 19.5079C15.9336 19.528 15.9336 19.5482 15.9269 19.5683C15.9201 19.6355 15.9067 19.6959 15.9 19.7631V19.7698V19.7765C15.8866 19.8369 15.8731 19.9041 15.8597 19.9645V19.9847C15.8463 20.0451 15.8328 20.1055 15.8194 20.1659C15.8194 20.1727 15.8127 20.1861 15.8127 20.1928C15.7993 20.2532 15.7858 20.3137 15.7657 20.3741V20.3943C15.7455 20.4614 15.7254 20.5218 15.712 20.5823C15.7053 20.589 15.7053 20.5957 15.7053 20.5957C15.6851 20.6628 15.665 20.73 15.6448 20.7971C15.618 20.8643 15.5978 20.9247 15.571 20.9918C15.5441 21.059 15.524 21.1261 15.4971 21.1866C15.4702 21.2537 15.4434 21.3141 15.4165 21.3813H15.4098C15.3829 21.4417 15.3561 21.5089 15.3225 21.5693C15.3158 21.5894 15.3091 21.6029 15.3024 21.6163C15.2956 21.623 15.2956 21.6297 15.2889 21.6364C14.8525 22.516 14.2079 23.2882 13.4022 23.8925C13.3484 23.9261 13.2947 23.9664 13.241 24.0067C13.2276 24.0201 13.2074 24.0268 13.194 24.0402C13.147 24.0738 13.1 24.1074 13.0463 24.141L13.0664 24.1812H13.0732C13.1672 24.1678 13.2612 24.1544 13.3552 24.141H13.3619C13.5365 24.1141 13.711 24.0805 13.8856 24.047C13.9326 24.0402 13.9863 24.0268 14.0333 24.0134C14.0669 24.0066 14.0938 24 14.1273 23.9932C14.1743 23.9865 14.2213 23.9731 14.2684 23.9664C14.3086 23.9529 14.3489 23.9462 14.3892 23.9328C15.0607 23.7716 15.712 23.5501 16.3364 23.2882C15.2688 24.7452 13.8386 25.9203 12.1667 26.6925C12.9389 26.6387 13.711 26.5112 14.4564 26.2963C17.1623 25.4973 19.4385 23.6776 20.8016 21.2268C20.5263 22.7779 19.9086 24.2551 18.9954 25.5443C19.6467 25.1145 20.2443 24.6177 20.7882 24.0537C22.2922 22.4825 23.2793 20.4882 23.615 18.3463C23.8433 19.4072 23.9104 20.5017 23.8097 21.5827C28.6576 14.8212 24.2126 7.81118 22.3527 5.96469C22.3459 5.95127 22.3392 5.94454 22.3392 5.93111C22.3325 5.93784 22.3325 5.93784 22.3325 5.94453C22.3325 5.93781 22.3325 5.93781 22.3258 5.93111C22.3258 6.01169 22.3191 6.09226 22.3124 6.17284C22.2922 6.32727 22.2721 6.47499 22.2452 6.62271C22.2116 6.77043 22.1714 6.91815 22.1311 7.06587C22.0841 7.20687 22.0304 7.35459 21.9699 7.4956C21.9095 7.62989 21.8423 7.7709 21.7685 7.90519C21.6946 8.03277 21.614 8.16706 21.5268 8.28792C21.4395 8.41549 21.3455 8.53635 21.2515 8.6505C21.1507 8.77136 21.0433 8.8788 20.9359 8.98623C20.8687 9.04666 20.8083 9.10038 20.7412 9.15409C20.6874 9.20109 20.6404 9.24138 20.5867 9.28838C20.4659 9.38238 20.345 9.46967 20.2107 9.55025C20.0831 9.63082 19.9488 9.7114 19.8146 9.77855C19.6735 9.84569 19.5325 9.90612 19.3915 9.96655C19.2505 10.0203 19.1028 10.0673 18.9551 10.1076C18.8074 10.1478 18.6529 10.1814 18.5052 10.2083C18.3508 10.2351 18.1964 10.2486 18.0486 10.262C17.9412 10.2687 17.8338 10.2754 17.7263 10.2754C17.5719 10.2754 17.4175 10.262 17.2697 10.2485C17.1153 10.2351 16.9609 10.215 16.8132 10.1814C16.6587 10.1545 16.511 10.1142 16.3633 10.0672H16.3566C16.5043 10.0538 16.652 10.0404 16.7997 10.0135C16.9541 9.98666 17.1019 9.9531 17.2496 9.91281C17.3973 9.87253 17.545 9.82552 17.686 9.77181C17.8338 9.71809 17.9748 9.65095 18.1091 9.5838C18.2501 9.51665 18.3776 9.4428 18.5119 9.36222C18.6395 9.27493 18.7671 9.18764 18.8879 9.09364C19.0088 8.99964 19.1229 8.89892 19.2304 8.79149C19.3445 8.69076 19.4452 8.57662 19.546 8.46247C19.6467 8.34161 19.7407 8.22075 19.828 8.09989C19.8414 8.07974 19.8548 8.05289 19.8683 8.03274C19.9354 7.92531 20.0025 7.81788 20.063 7.71044C20.1368 7.57615 20.204 7.44186 20.2644 7.30086C20.3248 7.15985 20.3786 7.01885 20.4256 6.87113C20.4726 6.73012 20.5061 6.5824 20.5397 6.43468C20.5666 6.28025 20.5934 6.13253 20.6069 5.98481C20.6203 5.83037 20.6337 5.67594 20.6337 5.52822C20.6337 5.42079 20.627 5.31335 20.6203 5.20592C20.6069 5.05149 20.5867 4.90377 20.5666 4.75605C20.5397 4.60161 20.5062 4.4539 20.4659 4.30617C20.4189 4.16517 20.3719 4.01745 20.3182 3.87645C20.2644 3.73544 20.1973 3.59443 20.1301 3.46014C20.0563 3.32585 19.9824 3.19156 19.9019 3.06399C19.8146 2.93641 19.7273 2.81555 19.6333 2.69468C19.5326 2.58054 19.4318 2.46639 19.3244 2.35224C19.2707 2.29853 19.2103 2.2381 19.1498 2.18438C18.8477 1.94937 18.5321 1.72779 18.2165 1.52636C18.1695 1.49949 18.1292 1.47935 18.0822 1.45921C17.8606 1.31821 17.6525 1.24431 17.4443 1.17716Z" fill="#E0234E"/>
</svg>
