<svg width="26" height="30" viewBox="0 0 26 30" fill="none" xmlns="http://www.w3.org/2000/svg">
<path d="M11.8269 0.723335C12.5373 0.316692 13.4627 0.314855 14.1725 0.723335C17.7435 2.74114 21.3156 4.75578 24.886 6.77481C25.5576 7.15309 26.0068 7.90045 25.9999 8.67425V20.8141C26.0049 21.62 25.5113 22.3852 24.8029 22.7549C21.2436 24.7616 17.6861 26.7707 14.1275 28.7774C13.4024 29.192 12.4585 29.1601 11.756 28.7115C10.6889 28.0929 9.62002 27.4774 8.55285 26.8594C8.33479 26.7294 8.08896 26.6259 7.93498 26.4145C8.07111 26.231 8.31448 26.2081 8.51224 26.128C8.95766 25.9864 9.36675 25.7591 9.77594 25.5384C9.87942 25.4676 10.0057 25.4948 10.1049 25.5581C11.0174 26.0813 11.9218 26.6197 12.8373 27.1379C13.0327 27.2506 13.2304 27.1009 13.3974 27.0079C16.8901 25.0338 20.3871 23.0673 23.8793 21.0926C24.0086 21.0304 24.0802 20.893 24.0697 20.7513C24.0721 16.7466 24.0703 12.7412 24.0709 8.73649C24.0857 8.57567 23.9926 8.42781 23.8472 8.36199C20.3003 6.36449 16.7552 4.36394 13.2089 2.36593C13.1474 2.32369 13.0747 2.30102 13.0001 2.30091C12.9255 2.3008 12.8527 2.32325 12.7911 2.36531C9.24481 4.36394 5.70033 6.36633 2.15402 8.36373C2.00912 8.42965 1.91187 8.57506 1.92912 8.73649C1.92973 12.7412 1.92912 16.7466 1.92912 20.7519C1.92297 20.821 1.93816 20.8904 1.97264 20.9507C2.00712 21.011 2.05924 21.0592 2.12198 21.0889C3.06833 21.6256 4.0159 22.1585 4.96287 22.6933C5.49635 22.9804 6.15136 23.151 6.73913 22.931C7.25782 22.745 7.6214 22.2157 7.6115 21.665C7.6164 17.6837 7.60905 13.7017 7.61518 9.72101C7.60222 9.54427 7.76987 9.39824 7.94172 9.41488C8.39642 9.41182 8.85174 9.40875 9.30644 9.4161C9.49624 9.41182 9.62686 9.60213 9.60339 9.78019C9.60155 13.7867 9.60829 17.7933 9.60033 21.7999C9.60155 22.8677 9.16287 24.0295 8.17519 24.552C6.95843 25.1823 5.45451 25.0486 4.25244 24.4442C3.2118 23.9248 2.21872 23.3119 1.19655 22.7554C0.486223 22.3877 -0.0049123 21.6195 8.78288e-05 20.8142V8.67425C-0.00736134 7.88443 0.459691 7.12349 1.15216 6.75073C4.71082 4.74241 8.26887 2.73257 11.8269 0.723335Z" fill="#8CC84B"/>
<path d="M14.9315 9.13271C16.4836 9.03281 18.1452 9.07353 19.5418 9.83814C20.6232 10.4241 21.2227 11.6538 21.2418 12.8551C21.2116 13.0172 21.0422 13.1066 20.8875 13.0955C20.4372 13.0948 19.9868 13.1016 19.5364 13.0924C19.3454 13.0997 19.2344 12.9236 19.2104 12.7547C19.081 12.1799 18.7675 11.6106 18.2265 11.3334C17.396 10.9176 16.433 10.9385 15.5274 10.9471C14.8662 10.9822 14.1553 11.0395 13.5952 11.4283C13.1652 11.7228 13.0345 12.3173 13.188 12.7961C13.3327 13.1398 13.7296 13.2508 14.0543 13.353C15.9247 13.8422 17.9068 13.7935 19.7415 14.4373C20.5012 14.6998 21.2442 15.21 21.5042 16.0053C21.8444 17.0713 21.6953 18.3454 20.9369 19.2011C20.3219 19.9053 19.4261 20.2886 18.5327 20.4968C17.3442 20.7618 16.1108 20.7685 14.9039 20.6509C13.7689 20.5215 12.5879 20.2233 11.7118 19.45C10.9626 18.7995 10.5966 17.7859 10.633 16.8076C10.6416 16.6424 10.8061 16.5272 10.9644 16.5408C11.4179 16.5371 11.8714 16.5359 12.3248 16.5414C12.506 16.5284 12.6402 16.6849 12.6495 16.8557C12.7332 17.4033 12.939 17.9781 13.4166 18.3028C14.3382 18.8974 15.4947 18.8567 16.55 18.8734C17.4243 18.8346 18.4058 18.8228 19.1193 18.245C19.4957 17.9154 19.6073 17.3639 19.5055 16.8895C19.3953 16.489 18.9763 16.3024 18.6165 16.1803C16.77 15.5962 14.7658 15.8082 12.9372 15.1477C12.1948 14.8853 11.477 14.3893 11.1917 13.6266C10.7938 12.5472 10.9761 11.212 11.814 10.3852C12.631 9.56272 13.8103 9.24598 14.9315 9.13261V9.13271Z" fill="#8CC84B"/>
</svg>
