<svg width="27" height="15" viewBox="0 0 27 15" fill="none" xmlns="http://www.w3.org/2000/svg">
<path fill-rule="evenodd" clip-rule="evenodd" d="M13.2258 14.0749C20.4056 14.0749 26.2258 11.1252 26.2258 7.48685C26.2258 3.84848 20.4056 0.898804 13.2258 0.898804C6.04626 0.898804 0.22583 3.84848 0.22583 7.48685C0.22583 11.1252 6.04626 14.0749 13.2258 14.0749Z" fill="#6E81B6"/>
<path fill-rule="evenodd" clip-rule="evenodd" d="M15.8604 9.61619L16.5052 6.29741C16.6508 5.54836 16.5297 4.98968 16.1457 4.63661C15.7736 4.29502 15.142 4.12886 14.2148 4.12886H13.0981L13.4175 2.48456C13.4235 2.45396 13.4227 2.42241 13.415 2.39218C13.4074 2.36195 13.3931 2.33378 13.3733 2.30971C13.3535 2.28564 13.3286 2.26625 13.3004 2.25294C13.2722 2.23963 13.2414 2.23273 13.2102 2.23273H11.6689C11.5676 2.23273 11.4807 2.30457 11.4614 2.40392L10.7764 5.92721C10.7142 5.53075 10.5608 5.18995 10.3152 4.90872C9.86312 4.39122 9.14802 4.12886 8.18958 4.12886H5.20218C5.10095 4.12886 5.01402 4.2007 4.99468 4.29989L3.60866 11.4317C3.59656 11.4938 3.61275 11.5576 3.65299 11.6063C3.69308 11.6552 3.75281 11.6834 3.81616 11.6834H5.3696C5.47084 11.6834 5.55777 11.6115 5.5771 11.512L5.91241 9.78707H7.06876C7.67554 9.78707 8.1855 9.72136 8.58352 9.59182C8.99051 9.45946 9.36511 9.23498 9.69523 8.92593C9.962 8.68086 10.1824 8.40639 10.352 8.11038L10.0752 9.53523C10.0631 9.59733 10.0793 9.66146 10.1195 9.70988C10.1596 9.75877 10.2195 9.78691 10.2827 9.78691H11.824C11.9252 9.78691 12.0122 9.71507 12.0315 9.61588L12.7922 5.70116H13.8498C14.3005 5.70116 14.4326 5.79092 14.4686 5.82943C14.5011 5.86464 14.5687 5.98867 14.4928 6.37963L13.8797 9.53508C13.8738 9.56567 13.8748 9.59718 13.8825 9.62737C13.8902 9.65756 13.9044 9.68567 13.9243 9.70971C13.9441 9.73374 13.969 9.75311 13.9971 9.76643C14.0253 9.77975 14.056 9.78669 14.0872 9.78675H15.6531C15.7021 9.78685 15.7496 9.76987 15.7874 9.73875C15.8252 9.70762 15.851 9.66429 15.8604 9.61619V9.61619ZM8.71447 6.87402C8.61763 7.37155 8.43528 7.72635 8.17213 7.92866C7.9049 8.13475 7.47747 8.23913 6.90166 8.23913H6.21313L6.71097 5.67711H7.60119C8.25514 5.67711 8.5186 5.81686 8.62439 5.93397C8.77106 6.09651 8.80219 6.42176 8.71447 6.87402V6.87402ZM22.3529 4.90872C21.9009 4.39122 21.1858 4.12886 20.2274 4.12886H17.24C17.1386 4.12886 17.0518 4.2007 17.0325 4.29989L15.6466 11.4317C15.6343 11.4938 15.6505 11.5576 15.6908 11.6063C15.731 11.6551 15.7909 11.6834 15.8538 11.6834H17.4074C17.5088 11.6834 17.5956 11.6115 17.6149 11.512L17.9502 9.78707H19.1067C19.7136 9.78707 20.2231 9.72136 20.6213 9.59182C21.0285 9.45946 21.4031 9.23498 21.733 8.92593C22.0084 8.673 22.235 8.38863 22.4066 8.08162C22.5783 7.77461 22.7014 7.43223 22.7732 7.06376C22.9497 6.15499 22.8084 5.42999 22.3529 4.90872V4.90872ZM20.8404 6.87402C20.7435 7.37155 20.5611 7.72635 20.2983 7.92866C20.0309 8.13475 19.6035 8.23913 19.0278 8.23913H18.3391L18.8368 5.67711H19.7272C20.3811 5.67711 20.6446 5.81686 20.7505 5.93397C20.8969 6.09651 20.9282 6.42176 20.8404 6.87402V6.87402Z" fill="white"/>
<path fill-rule="evenodd" clip-rule="evenodd" d="M7.55704 5.46572C8.14717 5.46572 8.54064 5.57466 8.73729 5.79254C8.93379 6.01041 8.98063 6.38455 8.87783 6.91446C8.7703 7.46638 8.56343 7.86032 8.25689 8.09644C7.95035 8.33255 7.48379 8.45045 6.85751 8.45045H5.91243L6.49249 5.46572H7.55704ZM3.77185 11.472H5.32529L5.69392 9.57599H7.02461C7.61175 9.57599 8.09482 9.51421 8.47398 9.39081C8.85315 9.26741 9.19788 9.06069 9.50804 8.77034C9.76836 8.53125 9.97901 8.26715 10.1403 7.97854C10.3014 7.68992 10.4159 7.37159 10.4836 7.0234C10.648 6.17799 10.524 5.51948 10.1118 5.04789C9.69982 4.57614 9.04414 4.34034 8.14544 4.34034H5.15803L3.77185 11.472V11.472ZM11.6246 2.44421H13.1659L12.7974 4.34034H14.1707C15.0344 4.34034 15.6306 4.49094 15.9585 4.79228C16.2865 5.09363 16.3847 5.58205 16.2536 6.25722L15.6088 9.57599H14.0429L14.656 6.42039C14.7256 6.06135 14.7002 5.81659 14.579 5.68596C14.4578 5.55548 14.1998 5.49009 13.8055 5.49009H12.5737L11.7797 9.57599H10.2384L11.6246 2.44421ZM19.683 5.46572C20.2732 5.46572 20.6665 5.57466 20.8633 5.79254C21.0598 6.01041 21.1065 6.38455 21.0037 6.91446C20.8965 7.46638 20.6896 7.86032 20.3829 8.09644C20.0765 8.33255 19.6098 8.45045 18.9838 8.45045H18.0387L18.6187 5.46572H19.683V5.46572ZM15.8975 11.472H17.4511L17.8196 9.57599H19.1503C19.7376 9.57599 20.2207 9.51421 20.5998 9.39081C20.979 9.26741 21.3237 9.06069 21.6339 8.77034C21.8942 8.53125 22.1049 8.26715 22.266 7.97854C22.4271 7.68992 22.5417 7.37159 22.6096 7.0234C22.7739 6.17799 22.6499 5.51948 22.2378 5.04789C21.8255 4.57614 21.17 4.34034 20.2713 4.34034H17.2839L15.8975 11.472V11.472Z" fill="#374151"/>
</svg>
