<svg width="26" height="28" viewBox="0 0 26 28" fill="none" xmlns="http://www.w3.org/2000/svg">
<path d="M25.9312 16.4051C25.7749 15.9305 25.3656 15.5999 24.8362 15.5206C24.5865 15.4832 24.3007 15.4991 23.9624 15.5691C23.3727 15.6911 22.9352 15.7375 22.616 15.7465C23.8211 13.7063 24.8009 11.3797 25.365 9.18958C26.2772 5.64825 25.7898 4.03496 25.2202 3.30523C23.7127 1.37373 21.5134 0.336107 18.8601 0.304358C17.4447 0.287003 16.2022 0.567234 15.554 0.768756C14.9505 0.661972 14.3015 0.602352 13.6207 0.591327C12.3443 0.570909 11.2166 0.849916 10.253 1.42334C9.71954 1.24244 8.86334 0.987428 7.8746 0.8247C5.54914 0.44187 3.67488 0.740171 2.30396 1.71133C0.6439 2.88718 -0.125655 4.93017 0.0166707 7.78353C0.0618727 8.68946 0.56724 11.4458 1.36296 14.0599C1.82027 15.5624 2.30793 16.8101 2.81238 17.7688C3.52777 19.1281 4.29325 19.9285 5.1526 20.216C5.63425 20.3769 6.50938 20.4896 7.42981 19.7209C7.54648 19.8626 7.70214 20.0034 7.90871 20.1341C8.17106 20.3 8.49185 20.4356 8.81224 20.5159C9.96682 20.8054 11.0483 20.733 11.971 20.3273C11.9767 20.4918 11.9811 20.6491 11.9847 20.7848C11.9908 21.005 11.9969 21.221 12.005 21.4229C12.0597 22.7882 12.1523 23.8498 12.4268 24.5926C12.4418 24.6335 12.4621 24.6957 12.4835 24.7618C12.6204 25.1822 12.8494 25.886 13.4319 26.4371C14.0351 27.0081 14.7648 27.1832 15.433 27.1832C15.7682 27.1832 16.0879 27.1391 16.3684 27.0789C17.3682 26.864 18.5036 26.5367 19.325 25.3639C20.1016 24.2552 20.4791 22.5854 20.5474 19.9543C20.5562 19.8798 20.5644 19.8088 20.5722 19.7411L20.5885 19.602L20.7714 19.6182L20.8186 19.6213C21.8368 19.6679 23.0819 19.4514 23.8466 19.0952C24.4508 18.814 26.3871 17.789 25.9312 16.4051" fill="#374151"/>
<path d="M24.1901 16.6742C21.1624 17.3005 20.9542 16.2725 20.9542 16.2725C24.1509 11.516 25.4873 5.47816 24.3342 4.00044C21.188 -0.0305098 15.7418 1.87588 15.6509 1.92529L15.6217 1.9306C15.0235 1.80605 14.3541 1.73194 13.6016 1.71959C12.2317 1.69713 11.1925 2.07975 10.4039 2.67942C10.4039 2.67942 0.688494 -1.33407 1.14041 7.72706C1.23652 9.65469 3.89571 22.3127 7.06739 18.4894C8.22666 17.0913 9.34683 15.9092 9.34683 15.9092C9.90311 16.2798 10.5691 16.4689 11.2673 16.401L11.3216 16.3548C11.3047 16.5284 11.3124 16.6981 11.3433 16.8992C10.5262 17.8146 10.7663 17.9753 9.13294 18.3125C7.48011 18.6541 8.45104 19.2621 9.08499 19.4211C9.85353 19.6138 11.6315 19.8868 12.8328 18.2004L12.7849 18.3928C13.105 18.65 13.3298 20.0653 13.2921 21.3485C13.2545 22.6315 13.2293 23.5124 13.4815 24.2005C13.7339 24.8886 13.9852 26.4367 16.1325 25.9754C17.9267 25.5898 18.8565 24.5907 18.9859 22.924C19.0776 21.7392 19.2854 21.9143 19.2984 20.855L19.4651 20.3535C19.6572 18.7474 19.4956 18.2292 20.6009 18.4702L20.8697 18.4939C21.6831 18.5309 22.748 18.3626 23.373 18.0713C24.7187 17.4451 25.5169 16.3994 24.1899 16.6742H24.1901" fill="#336791"/>
<path d="M10.9726 8.5891C10.6997 8.55102 10.4526 8.58624 10.3276 8.68118C10.2574 8.73457 10.2356 8.79644 10.2297 8.83901C10.214 8.95182 10.2928 9.07657 10.3413 9.14088C10.4783 9.323 10.6785 9.44816 10.8766 9.47573C10.9053 9.47981 10.9339 9.48165 10.9623 9.48165C11.2927 9.48165 11.5931 9.22367 11.6196 9.03328C11.6526 8.7948 11.3074 8.63586 10.9726 8.5892V8.5891ZM20.0114 8.59665C19.9853 8.40973 19.6536 8.35644 19.3388 8.40034C19.0245 8.44424 18.7196 8.58655 18.7451 8.77388C18.7655 8.91956 19.0278 9.16824 19.3383 9.16824C19.3646 9.16824 19.3911 9.1665 19.4177 9.16273C19.625 9.13394 19.7771 9.00194 19.8494 8.92588C19.9593 8.80991 20.0231 8.68067 20.0114 8.59665" fill="white"/>
<path d="M25.1976 16.603C25.0822 16.2529 24.7106 16.1403 24.0932 16.2682C22.2602 16.6475 21.6037 16.3847 21.3882 16.2256C22.813 14.0491 23.9851 11.418 24.6174 8.96333C24.9169 7.80055 25.0824 6.72066 25.0959 5.84045C25.1109 4.87439 24.9468 4.16447 24.6084 3.7308C23.244 1.98254 21.2414 1.04476 18.8174 1.01903C17.1509 1.00025 15.7429 1.4279 15.47 1.54816C14.8952 1.40482 14.2686 1.31682 13.5864 1.30559C12.3354 1.28528 11.254 1.58562 10.3587 2.19785C9.96979 2.05268 8.96476 1.7067 7.73565 1.50814C5.61074 1.16512 3.92217 1.42504 2.71719 2.28105C1.27937 3.30254 0.615593 5.12849 0.744175 7.70806C0.787443 8.57591 1.28059 11.2457 2.0588 13.8025C3.08318 17.1678 4.19674 19.0728 5.36834 19.4647C5.50547 19.5106 5.66357 19.5426 5.83797 19.5426C6.26535 19.5426 6.78935 19.3495 7.33453 18.6922C7.99948 17.8923 8.68734 17.1118 9.39723 16.3518C9.85781 16.5996 10.3638 16.7381 10.8813 16.7519C10.8823 16.7655 10.8836 16.7791 10.8848 16.7926C10.7958 16.8991 10.7085 17.0072 10.6232 17.1167C10.2646 17.5731 10.19 17.6682 9.03582 17.9065C8.70749 17.9745 7.83552 18.1546 7.82269 18.7676C7.80884 19.4373 8.85348 19.7185 8.97249 19.7483C9.38726 19.8525 9.78685 19.9038 10.1679 19.9038C11.0947 19.9038 11.9102 19.5984 12.562 19.0074C12.5419 21.3948 12.6412 23.7473 12.9271 24.4641C13.1612 25.0509 13.7332 26.4849 15.5398 26.4848C15.8049 26.4848 16.0967 26.4539 16.4177 26.3849C18.3033 25.9796 19.1221 25.1439 19.4388 23.3015C19.6083 22.3169 19.8992 19.9657 20.036 18.7045C20.3248 18.7948 20.6964 18.8362 21.0983 18.8361C21.9364 18.8361 22.9034 18.6575 23.5099 18.3753C24.1912 18.058 25.4206 17.2794 25.1976 16.603V16.603ZM20.7073 8.08068C20.7011 8.45299 20.65 8.79101 20.5959 9.14382C20.5375 9.52329 20.4773 9.91561 20.4621 10.3919C20.4471 10.8553 20.5048 11.3372 20.5606 11.8032C20.6734 12.7445 20.7892 13.7135 20.3411 14.6697C20.2667 14.5374 20.2004 14.4007 20.1426 14.2604C20.0869 14.125 19.966 13.9076 19.7985 13.6066C19.1471 12.435 17.6215 9.69153 18.4024 8.57203C18.6351 8.23881 19.2254 7.8962 20.7073 8.08068V8.08068ZM18.9111 1.77295C21.083 1.82104 22.8011 2.6358 24.0175 4.19449C24.9504 5.39004 23.9231 10.83 20.949 15.5231C20.9191 15.485 20.8891 15.447 20.8588 15.4091L20.8212 15.3619C21.5897 14.0892 21.4394 12.8299 21.3057 11.7135C21.2507 11.2553 21.1988 10.8226 21.212 10.416C21.2256 9.98523 21.2824 9.61568 21.3374 9.25837C21.4049 8.81806 21.4736 8.36244 21.4547 7.82535C21.4689 7.769 21.4746 7.70244 21.4671 7.62342C21.4188 7.10839 20.8324 5.56696 19.6372 4.17182C18.9833 3.40871 18.0299 2.55475 16.7281 1.97876C17.2881 1.86238 18.0538 1.75386 18.9111 1.77295V1.77295ZM6.75759 18.2112C6.15693 18.9354 5.74217 18.7966 5.60575 18.751C4.71698 18.4538 3.68567 16.57 2.77644 13.5829C1.98968 10.9983 1.52992 8.39919 1.49347 7.67039C1.37863 5.36544 1.93582 3.75908 3.14966 2.89582C5.12512 1.49109 8.37296 2.33189 9.67802 2.75831C9.65928 2.77689 9.63974 2.79424 9.62121 2.81313C7.4796 4.98189 7.5304 8.68729 7.5357 8.91382C7.53549 9.00121 7.54282 9.12494 7.5528 9.29512C7.58965 9.91837 7.65827 11.0783 7.47502 12.3919C7.3048 13.6125 7.68006 14.8073 8.50439 15.6698C8.58899 15.7582 8.67791 15.8423 8.77082 15.9218C8.4039 16.3158 7.60645 17.1873 6.75759 18.2112V18.2112ZM9.0461 15.1493C8.38171 14.454 8.07996 13.4871 8.21811 12.496C8.41154 11.1084 8.34017 9.89989 8.30179 9.25061C8.2964 9.15975 8.29161 9.08012 8.28886 9.01734C8.60171 8.73915 10.0515 7.96021 11.0855 8.19777C11.5573 8.30609 11.8448 8.62828 11.9643 9.18241C12.5829 12.0514 12.0461 13.2472 11.6149 14.2081C11.526 14.4061 11.442 14.5932 11.3703 14.7867L11.3148 14.9364C11.1741 15.3147 11.0431 15.6665 10.962 16.0006C10.2557 15.9985 9.56857 15.6959 9.0461 15.1492V15.1493ZM9.15453 19.0184C8.94827 18.9668 8.76277 18.877 8.65394 18.8026C8.74486 18.7597 8.90663 18.7013 9.18721 18.6433C10.545 18.3631 10.7547 18.1653 11.2126 17.5822C11.3176 17.4485 11.4366 17.297 11.6014 17.1124L11.6017 17.1122C11.8471 16.8366 11.9594 16.8833 12.163 16.9681C12.328 17.0365 12.4888 17.2439 12.554 17.4722C12.5848 17.58 12.6194 17.7846 12.5061 17.9438C11.5495 19.2869 10.1556 19.2696 9.15453 19.0184V19.0184ZM16.2605 25.6492C14.5995 26.0061 14.0113 25.1563 13.6237 24.1847C13.3736 23.5575 13.2506 20.729 13.3379 17.6054C13.339 17.5639 13.3331 17.5237 13.3217 17.486C13.3115 17.4114 13.296 17.3376 13.2753 17.2652C13.1455 16.8107 12.8294 16.4306 12.4502 16.273C12.2995 16.2104 12.023 16.0955 11.6907 16.1808C11.7616 15.888 11.8845 15.5573 12.0177 15.1993L12.0736 15.0487C12.1365 14.8789 12.2155 14.703 12.299 14.5168C12.7503 13.5115 13.3684 12.1344 12.6976 9.02346C12.4463 7.85823 11.6073 7.28919 10.3353 7.42139C9.57275 7.50051 8.87507 7.80902 8.52709 7.98594C8.45226 8.02392 8.38385 8.06067 8.31991 8.0964C8.41704 6.92238 8.78395 4.72831 10.1565 3.34011C11.0207 2.46623 12.1717 2.03461 13.574 2.05788C16.337 2.10321 18.1088 3.52509 19.1088 4.71003C19.9705 5.73102 20.437 6.75955 20.6232 7.3143C19.2229 7.17148 18.2705 7.44865 17.7877 8.14081C16.7374 9.6464 18.3623 12.5686 19.1433 13.973C19.2865 14.2304 19.4101 14.4528 19.449 14.5474C19.7033 15.1654 20.0326 15.578 20.2729 15.8792C20.3466 15.9715 20.4181 16.061 20.4725 16.1392C20.0483 16.2618 19.2865 16.5451 19.356 17.9612C19.3 18.6717 18.9018 21.9984 18.6995 23.1737C18.4325 24.7265 17.8627 25.3048 16.2605 25.6493V25.6492ZM23.194 17.6929C22.7603 17.8947 22.0345 18.0461 21.3451 18.0787C20.5835 18.1144 20.1959 17.9931 20.1046 17.9185C20.0619 17.0361 20.3894 16.9439 20.7361 16.8463C20.7905 16.831 20.8437 16.816 20.895 16.798C20.9268 16.824 20.9618 16.8498 21 16.8752C21.6121 17.2803 22.7038 17.3239 24.245 17.0049L24.2619 17.0016C24.054 17.1964 23.6983 17.458 23.194 17.6929Z" fill="white"/>
</svg>
