<svg width="26" height="27" viewBox="0 0 26 27" fill="none" xmlns="http://www.w3.org/2000/svg">
<path d="M23.2889 5.79778C21.7173 3.76268 19.5775 2.23934 17.1401 1.42044C14.7027 0.601533 12.0772 0.523841 9.59561 1.19719C7.11405 1.87053 4.8879 3.26467 3.19871 5.20329C1.50953 7.1419 0.433184 9.53791 0.105807 12.0883C-0.22157 14.6386 0.214725 17.2288 1.35952 19.5312C2.5043 21.8336 4.30617 23.7448 6.53721 25.0231C8.76826 26.3014 11.3283 26.8893 13.8935 26.7126C16.4587 26.5358 18.9139 25.6023 20.9485 24.0301C26.6279 19.641 27.676 11.4791 23.2885 5.79778H23.2889Z" fill="#FF6C37"/>
<path d="M17.3845 9.02666L11.903 14.5516L10.354 12.9591C15.7489 7.56417 16.2904 8.05167 17.3849 9.02666H17.3845Z" fill="white"/>
<path d="M11.9031 14.7027C11.8545 14.7015 11.8082 14.6822 11.7731 14.6487L10.2131 13.0887C10.178 13.0523 10.1583 13.0038 10.1583 12.9532C10.1583 12.9027 10.178 12.8541 10.2131 12.8177C15.5321 7.49874 16.258 7.74777 17.5145 8.88525C17.5356 8.90209 17.5524 8.92359 17.5637 8.94806C17.575 8.97253 17.5804 8.99929 17.5795 9.02622C17.5877 9.07903 17.5674 9.13306 17.5255 9.16719L12.044 14.6491C12.0056 14.6843 11.9552 14.7036 11.9031 14.7031V14.7027ZM10.6246 12.9587L11.9031 14.2371L17.103 9.03719C16.9235 8.81219 16.6673 8.66127 16.3835 8.6133C16.0996 8.56533 15.8081 8.62368 15.5646 8.77719C14.6221 9.19969 13.1056 10.4887 10.6246 12.9587V12.9587Z" fill="#FF6C37"/>
<path d="M13.474 16.079L11.979 14.5516L17.4605 9.1347C18.934 10.5757 16.7455 12.9806 13.474 16.0786V16.079Z" fill="white"/>
<path d="M13.474 16.274C13.426 16.2702 13.3805 16.2513 13.344 16.22L11.8165 14.725C11.7936 14.6695 11.7936 14.6071 11.8165 14.5515C11.8003 14.506 11.8003 14.4562 11.8165 14.4106L17.298 8.92911C17.3361 8.89329 17.3864 8.87335 17.4388 8.87335C17.4911 8.87335 17.5414 8.89329 17.5795 8.92911C17.757 9.0925 17.8973 9.29219 17.9907 9.51462C18.0842 9.73705 18.1286 9.97699 18.121 10.2181C18.121 11.6806 16.4526 13.5221 13.6145 16.209C13.5766 16.2466 13.5267 16.2696 13.4736 16.274H13.474ZM12.2605 14.5515L13.4845 15.7752C15.6511 13.7277 17.7205 11.6152 17.731 10.1852C17.7428 9.88207 17.6426 9.58519 17.4495 9.3512L12.2605 14.5515Z" fill="#FF6C37"/>
<path d="M10.3971 12.9916L11.4805 14.0751C11.4874 14.0812 11.493 14.0887 11.4968 14.0971C11.5006 14.1055 11.5025 14.1146 11.5025 14.1238C11.5025 14.1331 11.5006 14.1422 11.4968 14.1506C11.493 14.159 11.4874 14.1665 11.4805 14.1726L9.19458 14.6601C9.14844 14.67 9.1003 14.6646 9.05751 14.6447C9.01471 14.6248 8.9796 14.5914 8.95752 14.5497C8.93544 14.508 8.9276 14.4602 8.93519 14.4136C8.94279 14.367 8.9654 14.3242 8.99958 14.2916L10.3321 12.9701C10.3321 12.9701 10.3755 12.9701 10.3971 12.9916Z" fill="white"/>
<path d="M9.14059 14.8767C9.06836 14.8758 8.99758 14.8564 8.93499 14.8203C8.8724 14.7843 8.82011 14.7328 8.78309 14.6707C8.74144 14.5922 8.72633 14.5022 8.74002 14.4144C8.75371 14.3265 8.79547 14.2454 8.85906 14.1832L10.1806 12.8508C10.2282 12.8082 10.2899 12.7846 10.3538 12.7846C10.4178 12.7846 10.4794 12.8082 10.5271 12.8508L11.6106 13.9342C11.6747 13.9951 11.6999 14.0874 11.6756 14.1727C11.6512 14.258 11.5797 14.3258 11.4915 14.3461L9.20559 14.8336L9.14059 14.8767ZM10.354 13.2302L9.13003 14.4542L11.156 14.0207L10.354 13.2302Z" fill="#FF6C37"/>
<path d="M20.2991 5.98234C19.515 5.22591 18.2832 5.19422 17.461 5.908C16.6387 6.62177 16.4982 7.84701 17.1384 8.72857C17.7787 9.61012 18.9856 9.85712 19.92 9.29731L18.4465 7.82386L20.2991 5.98234Z" fill="white"/>
<path d="M18.8366 9.79528C18.3862 9.78951 17.9473 9.6513 17.5749 9.39789C17.2024 9.14447 16.9127 8.78705 16.742 8.37017C16.5714 7.9536 16.5266 7.49614 16.6132 7.05439C16.6999 6.61265 16.9141 6.206 17.2295 5.88475C17.6632 5.45899 18.2467 5.22046 18.8545 5.22046C19.4623 5.22046 20.0458 5.45899 20.4795 5.88475C20.5209 5.91969 20.5445 5.97128 20.5445 6.02572C20.5444 6.0525 20.5385 6.07895 20.5273 6.10327C20.5161 6.12759 20.4998 6.14922 20.4795 6.16668L18.7245 7.82417L20.057 9.13513C20.0786 9.15575 20.0948 9.18134 20.1042 9.20966C20.1136 9.23799 20.116 9.26819 20.111 9.29763C20.1078 9.32603 20.0984 9.35338 20.0834 9.37774C20.0685 9.4021 20.0484 9.42288 20.0245 9.4386C19.6665 9.66235 19.255 9.78582 18.833 9.79609L18.8366 9.79528ZM18.8366 5.59184C18.0647 5.59591 17.3741 6.06025 17.0845 6.76996C16.7948 7.47967 16.9524 8.29664 17.4936 8.84182C17.7627 9.11254 18.1073 9.29566 18.4823 9.36721C18.8573 9.43875 19.2452 9.39539 19.5951 9.24279L18.3166 7.96433C18.2963 7.94808 18.2799 7.92746 18.2686 7.90401C18.2573 7.88056 18.2515 7.85487 18.2515 7.82884C18.2515 7.80282 18.2573 7.77713 18.2686 7.75368C18.2799 7.73023 18.2963 7.70961 18.3166 7.69336L20.0066 5.9924C19.6707 5.73494 19.2599 5.59415 18.8366 5.59144V5.59184Z" fill="#FF6C37"/>
<path d="M20.3315 6.01471L18.479 7.85622L19.9524 9.32967C20.1007 9.24453 20.2388 9.14272 20.364 9.0262C20.7501 8.61802 20.9626 8.07577 20.9566 7.51389C20.9505 6.95201 20.7264 6.41446 20.3315 6.01471V6.01471Z" fill="white"/>
<path d="M19.9196 9.49223C19.8952 9.49355 19.8709 9.48938 19.8484 9.48002C19.8259 9.47067 19.8058 9.45638 19.7896 9.4382L18.3161 7.96474C18.2958 7.94849 18.2794 7.92787 18.2681 7.90442C18.2568 7.88097 18.251 7.85528 18.251 7.82926C18.251 7.80324 18.2568 7.77755 18.2681 7.75409C18.2794 7.73064 18.2958 7.71003 18.3161 7.69377L20.1576 5.88476C20.1754 5.85794 20.1996 5.83594 20.2279 5.82073C20.2563 5.80551 20.288 5.79755 20.3201 5.79755C20.3523 5.79755 20.384 5.80551 20.4123 5.82073C20.4407 5.83594 20.4648 5.85794 20.4826 5.88476C20.6988 6.09658 20.8706 6.3494 20.9878 6.62843C21.1051 6.90746 21.1655 7.20708 21.1655 7.50974C21.1655 7.81241 21.1051 8.11203 20.9878 8.39106C20.8706 8.67009 20.6988 8.92291 20.4826 9.13473C20.3551 9.26999 20.2092 9.38665 20.0492 9.48126C20.0089 9.50157 19.9623 9.5055 19.9192 9.49223H19.9196ZM18.728 7.82418L19.9521 9.0482C20.0363 8.98919 20.116 8.92401 20.1905 8.8532C20.5504 8.49436 20.753 8.00736 20.754 7.49918C20.7548 7.04441 20.5891 6.60507 20.288 6.26419L18.728 7.82418Z" fill="#FF6C37"/>
<path d="M17.6121 9.25416C17.4654 9.11637 17.2717 9.03967 17.0704 9.03967C16.8691 9.03967 16.6754 9.11637 16.5286 9.25416L11.6216 14.1503L12.4341 14.9737L17.6231 10.4237C17.7022 10.3479 17.765 10.2567 17.8075 10.1557C17.8501 10.0546 17.8715 9.94598 17.8705 9.83638C17.8694 9.72678 17.846 9.61854 17.8015 9.51834C17.7571 9.41814 17.6926 9.3281 17.6121 9.25375V9.25416Z" fill="white"/>
<path d="M12.3905 15.1691C12.342 15.1679 12.2956 15.1486 12.2605 15.1151L11.4371 14.2916C11.402 14.2552 11.3823 14.2067 11.3823 14.1561C11.3823 14.1056 11.402 14.057 11.4371 14.0206L16.3445 9.13471C16.4859 8.99353 16.6664 8.89808 16.8626 8.86072C17.0589 8.82337 17.2619 8.84584 17.4452 8.92522C17.6285 9.00461 17.7838 9.13724 17.8908 9.30592C17.9978 9.4746 18.0517 9.67155 18.0455 9.87124C18.0399 10.0068 18.0072 10.1398 17.9496 10.2626C17.8919 10.3854 17.8103 10.4954 17.7095 10.5862L12.5205 15.1362C12.4828 15.1629 12.4364 15.1745 12.3905 15.1687V15.1691ZM11.8165 14.1502L12.358 14.7027L17.4495 10.2718C17.5755 10.1621 17.6506 10.0053 17.6555 9.83833C17.6604 9.67136 17.5946 9.50805 17.4715 9.3943C17.3578 9.28111 17.2039 9.21755 17.0435 9.21755C16.8831 9.21755 16.7292 9.28111 16.6155 9.3943L11.8165 14.1502Z" fill="#FF6C37"/>
<path d="M7.81909 19.7296C7.80524 19.7484 7.79776 19.7712 7.79776 19.7946C7.79776 19.818 7.80524 19.8408 7.81909 19.8596L8.03562 20.8021C8.0443 20.8576 8.03608 20.9144 8.01202 20.9651C7.98796 21.0158 7.94919 21.0581 7.90075 21.0865C7.85249 21.1147 7.79651 21.1269 7.74087 21.1213C7.68524 21.1156 7.63283 21.0925 7.59119 21.0552L6.10718 19.6252L10.7331 14.9627H12.3365L13.42 16.0462C11.7299 17.5239 9.84543 18.7632 7.81909 19.7296V19.7296Z" fill="white"/>
<path d="M7.72163 21.3222C7.59894 21.3198 7.47788 21.2694 7.39663 21.1812L5.97761 19.7622C5.95729 19.746 5.94088 19.7254 5.92961 19.7019C5.91833 19.6784 5.91248 19.6528 5.91248 19.6267C5.91248 19.6007 5.91833 19.575 5.92961 19.5516C5.94088 19.5281 5.95729 19.5075 5.97761 19.4913L10.6356 14.8223C10.6617 14.7945 10.6958 14.7757 10.7331 14.7682H12.3472C12.3892 14.7534 12.4351 14.7534 12.4772 14.7682L13.5606 15.8517C13.5812 15.8707 13.5969 15.8944 13.6063 15.9208C13.6157 15.9472 13.6186 15.9755 13.6146 16.0032C13.6154 16.0301 13.6099 16.0569 13.5987 16.0813C13.5874 16.1058 13.5706 16.1273 13.5496 16.1442L13.4631 16.2202C11.7662 17.6348 9.89926 18.8321 7.90566 19.7842L8.11163 20.6616C8.12755 20.7293 8.12816 20.7997 8.11341 20.8677C8.09866 20.9356 8.06893 20.9995 8.02638 21.0545C7.98384 21.1095 7.92955 21.1543 7.86748 21.1856C7.80541 21.217 7.73712 21.2341 7.6676 21.2357L7.72163 21.3222ZM6.40011 19.6212L7.67816 20.9103C7.69007 20.9209 7.70547 20.9268 7.72143 20.9268C7.73738 20.9268 7.75278 20.9209 7.76469 20.9103C7.77266 20.8992 7.77695 20.8859 7.77695 20.8723C7.77695 20.8587 7.77266 20.8454 7.76469 20.8343L7.54816 19.8918C7.5311 19.8242 7.53796 19.7527 7.56757 19.6895C7.59719 19.6264 7.64775 19.5754 7.71066 19.5453C9.65066 18.6059 11.4695 17.4346 13.1271 16.0568L12.2387 15.1684H10.7872L6.40011 19.6212Z" fill="#FF6C37"/>
<path d="M4.9916 20.7373L6.07506 19.6538L7.74351 21.3223L5.08951 21.1382C5.04394 21.1347 5.00067 21.1168 4.96586 21.0872C4.93105 21.0575 4.90649 21.0177 4.89568 20.9733C4.88487 20.9288 4.88836 20.8822 4.90566 20.8399C4.92296 20.7975 4.95318 20.7618 4.99201 20.7377L4.9916 20.7373Z" fill="white"/>
<path d="M7.77558 21.4846L5.13214 21.3006C4.97533 21.2859 4.84046 21.1787 4.78521 21.0353C4.72996 20.8919 4.76368 20.7217 4.87214 20.6071L5.9556 19.5236C5.99196 19.4885 6.04053 19.4689 6.09108 19.4689C6.14163 19.4689 6.19021 19.4885 6.22657 19.5236L7.88404 21.1811C7.90699 21.2126 7.91936 21.2505 7.91936 21.2894C7.91936 21.3283 7.90699 21.3662 7.88404 21.3976C7.85898 21.4382 7.82065 21.4687 7.77558 21.4842V21.4846ZM5.13214 20.8781L7.29865 21.019L6.10713 19.9031L5.13214 20.8781Z" fill="#FF6C37"/>
<path d="M12.4881 15.0936L10.2997 15.4296L11.5672 14.1731L12.4881 15.0936Z" fill="white"/>
<path d="M10.2995 15.6347C10.2632 15.6356 10.2273 15.6258 10.1965 15.6065C10.1656 15.5872 10.1411 15.5593 10.1261 15.5262C10.103 15.4948 10.0906 15.4569 10.0906 15.4179C10.0906 15.379 10.103 15.341 10.1261 15.3097L11.3826 14.0421C11.4207 14.0063 11.471 13.9864 11.5234 13.9864C11.5757 13.9864 11.626 14.0063 11.6641 14.0421L12.5855 14.9627C12.6039 14.9919 12.6136 15.0257 12.6136 15.0602C12.6136 15.0947 12.6039 15.1285 12.5855 15.1577C12.5764 15.1933 12.5573 15.2255 12.5305 15.2505C12.5036 15.2755 12.4701 15.2922 12.4339 15.2987L10.2675 15.6347H10.2995ZM11.567 14.4537L10.863 15.1577L12.0764 14.9737L11.567 14.4537Z" fill="#FF6C37"/>
<path d="M12.488 15.0927L10.9606 15.2877C10.9197 15.297 10.8769 15.2929 10.8386 15.2759C10.8002 15.259 10.7684 15.2301 10.7477 15.1936C10.7271 15.1572 10.7187 15.115 10.7239 15.0734C10.7291 15.0318 10.7476 14.993 10.7765 14.9627L11.5675 14.1718L12.488 15.0927Z" fill="white"/>
<path d="M10.9171 15.4941C10.8463 15.4934 10.7769 15.474 10.716 15.4378C10.6552 15.4016 10.605 15.35 10.5705 15.2881C10.5292 15.2139 10.5131 15.1283 10.5249 15.0442C10.5366 14.9601 10.5754 14.8821 10.6355 14.8221L11.4265 14.0312C11.4646 13.9954 11.515 13.9754 11.5673 13.9754C11.6196 13.9754 11.6699 13.9954 11.708 14.0312L12.629 14.9521C12.6564 14.9781 12.6756 15.0114 12.6845 15.0481C12.6933 15.0848 12.6913 15.1232 12.6787 15.1588C12.6661 15.1944 12.6434 15.2255 12.6135 15.2485C12.5835 15.2714 12.5476 15.2852 12.51 15.2881L10.9934 15.4831L10.9171 15.4941ZM10.9171 15.0931L12.0655 14.9521L11.5565 14.4431L10.9065 15.0931H10.9171ZM20.342 7.26066C20.3216 7.22648 20.2893 7.20097 20.2514 7.18899C20.2134 7.17701 20.1723 7.17938 20.136 7.19566C20.1181 7.20475 20.1022 7.21734 20.0892 7.23269C20.0762 7.24804 20.0664 7.26584 20.0605 7.28504C20.0484 7.32377 20.0522 7.3657 20.071 7.40163C20.147 7.56128 20.1259 7.75019 20.017 7.88913C20.0035 7.90251 19.9929 7.91855 19.9859 7.93625C19.9789 7.95394 19.9756 7.97289 19.9764 7.99191C19.9768 8.03001 19.9912 8.06661 20.017 8.09469C20.0448 8.10566 20.0757 8.10566 20.1035 8.09469C20.1287 8.10103 20.1552 8.10033 20.1801 8.09266C20.2049 8.085 20.2272 8.07066 20.2445 8.05122C20.3337 7.942 20.3902 7.80977 20.4074 7.66981C20.4247 7.52985 20.402 7.38787 20.342 7.26025V7.26066Z" fill="#FF6C37"/>
</svg>
