<svg width="26" height="27" viewBox="0 0 26 27" fill="none" xmlns="http://www.w3.org/2000/svg">
<path d="M12.9063 0.811035C6.3059 0.811035 6.71802 3.67337 6.71802 3.67337L6.72535 6.63884H13.024V7.52915H4.22362C4.22362 7.52915 0 7.05014 0 13.7099C0 20.3699 3.68648 20.1337 3.68648 20.1337H5.88655V17.0432C5.88655 17.0432 5.76795 13.3567 9.51419 13.3567H15.7613C15.7613 13.3567 19.2712 13.4135 19.2712 9.9646V4.26213C19.2712 4.26213 19.8043 0.811035 12.9063 0.811035ZM9.43325 2.80525C9.58209 2.80512 9.7295 2.83434 9.86703 2.89123C10.0046 2.94813 10.1295 3.03159 10.2348 3.13684C10.34 3.24208 10.4235 3.36705 10.4804 3.50459C10.5373 3.64213 10.5665 3.78954 10.5664 3.93838C10.5665 4.08722 10.5373 4.23463 10.4804 4.37216C10.4235 4.5097 10.34 4.63467 10.2348 4.73992C10.1295 4.84516 10.0046 4.92862 9.86703 4.98552C9.7295 5.04242 9.58209 5.07163 9.43325 5.0715C9.28441 5.07163 9.137 5.04242 8.99946 4.98552C8.86192 4.92862 8.73696 4.84516 8.63171 4.73992C8.52646 4.63467 8.443 4.5097 8.3861 4.37216C8.32921 4.23463 8.29999 4.08722 8.30012 3.93838C8.29999 3.78954 8.32921 3.64213 8.3861 3.50459C8.443 3.36705 8.52646 3.24208 8.63171 3.13684C8.73696 3.03159 8.86192 2.94813 8.99946 2.89123C9.137 2.83434 9.28441 2.80512 9.43325 2.80525V2.80525Z" fill="url(#paint0_linear_168_111)"/>
<path d="M13.0937 26.6759C19.6942 26.6759 19.282 23.8135 19.282 23.8135L19.2747 20.8481H12.9759V19.9578H21.7763C21.7763 19.9578 26 20.4368 26 13.7768C26 7.11695 22.3135 7.35315 22.3135 7.35315H20.1134V10.4435C20.1134 10.4435 20.232 14.13 16.4858 14.13H10.2386C10.2386 14.13 6.72879 14.0733 6.72879 17.5223V23.2249C6.72879 23.2249 6.19582 26.6759 13.0936 26.6759H13.0937ZM16.5668 24.6818C16.418 24.682 16.2706 24.6528 16.133 24.5959C15.9955 24.539 15.8705 24.4555 15.7653 24.3502C15.66 24.245 15.5766 24.12 15.5197 23.9825C15.4628 23.845 15.4336 23.6975 15.4337 23.5487C15.4335 23.3999 15.4628 23.2524 15.5196 23.1149C15.5765 22.9773 15.66 22.8524 15.7652 22.7471C15.8705 22.6418 15.9955 22.5584 16.133 22.5015C16.2706 22.4446 16.418 22.4153 16.5668 22.4155C16.7157 22.4153 16.8631 22.4446 17.0006 22.5015C17.1381 22.5584 17.2631 22.6418 17.3684 22.7471C17.4736 22.8523 17.5571 22.9773 17.614 23.1148C17.6709 23.2524 17.7001 23.3998 17.6999 23.5486C17.7001 23.6974 17.6709 23.8449 17.614 23.9824C17.5571 24.1199 17.4736 24.2449 17.3684 24.3501C17.2631 24.4554 17.1381 24.5389 17.0006 24.5958C16.8631 24.6526 16.7157 24.6819 16.5668 24.6817V24.6818Z" fill="url(#paint1_linear_168_111)"/>
<defs>
<linearGradient id="paint0_linear_168_111" x1="2.49859" y1="3.13742" x2="15.3834" y2="15.8937" gradientUnits="userSpaceOnUse">
<stop stop-color="#387EB8"/>
<stop offset="1" stop-color="#366994"/>
</linearGradient>
<linearGradient id="paint1_linear_168_111" x1="10.4073" y1="11.3287" x2="24.2441" y2="24.4091" gradientUnits="userSpaceOnUse">
<stop stop-color="#FFE052"/>
<stop offset="1" stop-color="#FFC331"/>
</linearGradient>
</defs>
</svg>
