<svg width="26" height="23" viewBox="0 0 26 23" fill="none" xmlns="http://www.w3.org/2000/svg">
<path d="M24.9813 17.4856C23.5938 18.2089 16.406 21.1642 14.8758 21.962C13.3455 22.7599 12.4954 22.7522 11.2865 22.1743C10.0777 21.5964 2.42866 18.5067 1.05077 17.848C0.362172 17.519 0 17.2411 0 16.9786V14.3506C0 14.3506 9.9582 12.1828 11.5658 11.606C13.1734 11.0292 13.7311 11.0084 15.0992 11.5095C16.4674 12.0108 24.6479 13.4867 26 13.9819L25.9994 16.5728C25.9996 16.8326 25.6876 17.1176 24.9813 17.4856" fill="#912626"/>
<path d="M24.9808 14.8732C23.5933 15.5961 16.4058 18.5516 14.8755 19.3492C13.3454 20.1472 12.4953 20.1394 11.2865 19.5615C10.0776 18.984 2.42884 15.8938 1.05105 15.2356C-0.326749 14.5769 -0.355593 14.1237 0.997828 13.5937C2.35125 13.0636 9.95808 10.0791 11.5659 9.50237C13.1734 8.9258 13.7311 8.90478 15.0992 9.40609C16.4673 9.9072 23.612 12.751 24.9639 13.2462C26.3163 13.7419 26.3682 14.1501 24.9808 14.8732" fill="#C6302B"/>
<path d="M24.9813 13.2333C23.5938 13.9567 16.406 16.9119 14.8758 17.71C13.3455 18.5076 12.4954 18.4998 11.2865 17.922C10.0776 17.3444 2.42866 14.2543 1.05077 13.5957C0.362172 13.2666 0 12.9892 0 12.7266V10.0983C0 10.0983 9.9582 7.93054 11.5658 7.35377C13.1734 6.777 13.7311 6.75608 15.0992 7.25729C16.4675 7.7585 24.648 9.2341 26 9.72942L25.9994 12.3206C25.9996 12.5803 25.6876 12.8653 24.9813 13.2333Z" fill="#912626"/>
<path d="M24.9808 10.6208C23.5933 11.344 16.4058 14.2992 14.8755 15.0972C13.3454 15.8949 12.4953 15.887 11.2865 15.3092C10.0776 14.7317 2.42884 11.6415 1.05105 10.9832C-0.326749 10.3248 -0.355593 9.8714 0.997828 9.34124C2.35125 8.81139 9.95818 5.82678 11.5659 5.2501C13.1734 4.67343 13.7311 4.65251 15.0992 5.15372C16.4673 5.65483 23.612 8.49848 24.9639 8.9938C26.3163 9.48942 26.3682 9.8977 24.9808 10.6208" fill="#C6302B"/>
<path d="M24.9813 8.8234C23.5938 9.54652 16.406 12.502 14.8758 13.3001C13.3455 14.0977 12.4954 14.0899 11.2865 13.512C10.0776 12.9344 2.42866 9.8443 1.05077 9.18597C0.362172 8.85661 0 8.57904 0 8.3168V5.68836C0 5.68836 9.9582 3.52071 11.5658 2.94404C13.1734 2.36716 13.7311 2.34644 15.0992 2.84755C16.4675 3.34877 24.648 4.82437 26 5.31969L25.9994 7.91075C25.9996 8.17025 25.6876 8.45523 24.9813 8.8234Z" fill="#912626"/>
<path d="M24.981 6.21092C23.5936 6.93405 16.406 9.88951 14.8757 10.6872C13.3456 11.4849 12.4955 11.477 11.2867 10.8995C10.0779 10.3216 2.42904 7.23162 1.05134 6.57319C-0.326556 5.91487 -0.355298 5.46139 0.998022 4.93133C2.35144 4.40138 9.95838 1.41717 11.5661 0.840295C13.1736 0.263521 13.7313 0.242803 15.0994 0.744014C16.4675 1.24522 23.6122 4.08887 24.9641 4.58419C26.3165 5.07941 26.3684 5.4878 24.981 6.21092" fill="#C6302B"/>
<path d="M16.1771 3.65426L13.9417 3.88633L13.4413 5.09045L12.6331 3.74678L10.0519 3.51481L11.9779 2.82023L11.4 1.75403L13.2033 2.45928L14.9032 1.90272L14.4438 3.00517L16.1771 3.65426V3.65426ZM13.3079 9.49592L9.136 7.7656L15.114 6.84799L13.3079 9.49592V9.49592ZM7.5239 4.32356C9.28855 4.32356 10.7191 4.87809 10.7191 5.56201C10.7191 6.24613 9.28855 6.80056 7.5239 6.80056C5.75925 6.80056 4.32874 6.24603 4.32874 5.56201C4.32874 4.87809 5.75925 4.32356 7.5239 4.32356Z" fill="white"/>
<path d="M18.819 3.98344L22.357 5.38155L18.822 6.77834L18.819 3.98334" fill="#621B1C"/>
<path d="M14.9048 5.53179L18.819 3.98346L18.8221 6.77837L18.4382 6.92848L14.9048 5.53179Z" fill="#9A2928"/>
</svg>
