<svg width="26" height="17" viewBox="0 0 26 17" fill="none" xmlns="http://www.w3.org/2000/svg">
<path d="M13 0.688965C9.53323 0.688965 7.36661 2.42186 6.49984 5.88733C7.8 4.15443 9.31669 3.50484 11.0499 3.9379C12.0389 4.185 12.7458 4.90254 13.5283 5.69648C14.8028 6.98982 16.2779 8.48668 19.5002 8.48668C22.9666 8.48668 25.1336 6.75378 26 3.28799C24.7002 5.02088 23.1835 5.6708 21.4499 5.23774C20.4612 4.99065 19.7544 4.2731 18.9718 3.47916C17.6974 2.18582 16.222 0.688965 13 0.688965V0.688965ZM6.49984 8.48668C3.03339 8.48668 0.86645 10.2196 0 13.6854C1.29984 11.9525 2.81653 11.3026 4.55008 11.7359C5.53878 11.9834 6.24559 12.7006 7.02816 13.4942C8.30264 14.7875 9.77804 16.2847 13 16.2847C16.4668 16.2847 18.6334 14.5518 19.5002 11.086C18.2 12.8189 16.6833 13.4688 14.9501 13.0354C13.9611 12.7887 13.2542 12.0708 12.4717 11.2772C11.1972 9.98386 9.72212 8.48668 6.49984 8.48668V8.48668Z" fill="#06B6D4"/>
</svg>
