<svg width="27" height="27" viewBox="0 0 27 27" fill="none" xmlns="http://www.w3.org/2000/svg">
<path d="M18.6086 0.486816H7.84302C3.63616 0.486816 0.22583 3.89714 0.22583 8.104V18.8696C0.22583 23.0766 3.63616 26.4868 7.84302 26.4868H18.6086C22.8156 26.4868 26.2258 23.0766 26.2258 18.8696V8.104C26.2258 3.89714 22.8156 0.486816 18.6086 0.486816Z" fill="#398CCB"/>
<path fill-rule="evenodd" clip-rule="evenodd" d="M13.1976 4.29541L16.807 6.37785V7.52286L21.1757 10.0458V14.3615L22.3477 15.038V19.2052L18.7406 21.2876L17.1392 20.3615L13.2457 22.6096L9.37544 20.3745L7.79651 21.2876L4.18945 19.2016V15.038L5.31564 14.3878V10.0458L9.59061 7.57781L9.59298 7.57771V6.37785L13.1976 4.29541ZM16.807 8.60568V10.5427L13.2 12.6251L9.59298 10.5427V8.65935L9.59061 8.65945L6.2531 10.5872V13.8465L7.79651 12.9555L11.4035 15.038V19.2016L10.3122 19.8327L13.2457 21.5267L16.2025 19.8198L15.1336 19.2016V15.038L18.7406 12.9555L20.2383 13.8202V10.5872L16.807 8.60568ZM16.0711 18.6649V16.1231L18.2718 17.3935V19.9353L16.0711 18.6649ZM21.4101 16.1196L19.2094 17.39V19.9353L21.4101 18.6614V16.1196ZM5.12696 18.6614V16.1196L7.32773 17.39V19.9317L5.12696 18.6614ZM10.466 16.1196L8.26522 17.39V19.9317L10.466 18.6614V16.1196ZM16.5399 15.311L18.7406 14.0407L20.9413 15.311L18.7406 16.5825L16.5399 15.311ZM7.79651 14.0372L5.59569 15.311L7.79651 16.579L9.99726 15.311L7.79651 14.0372ZM10.5305 10.0013V7.45949L12.7289 8.73095V11.2716L10.5305 10.0013ZM15.8672 7.45949L13.6687 8.73095V11.2704L15.8672 10.0013V7.45949ZM10.9992 6.64851L13.1976 5.37823L15.3984 6.64851L13.1976 7.91885L10.9992 6.64851Z" fill="white"/>
</svg>
