<svg width="26" height="27" viewBox="0 0 26 27" fill="none" xmlns="http://www.w3.org/2000/svg">
<path d="M0 0.743408H26V26.7434H0V0.743408Z" fill="#017ACB"/>
<path d="M12.4841 10.3715H13.7313V12.5246H10.3594V22.104L10.2701 22.1284C10.1482 22.1609 8.54349 22.1609 8.19818 22.1243L7.92193 22.0999V12.5246H4.55005V10.3715L5.61849 10.3593C6.20349 10.3512 7.70662 10.3512 8.95787 10.3593C10.2091 10.3674 11.7935 10.3715 12.4841 10.3715V10.3715ZM22.0026 21.0884C21.507 21.6124 20.9748 21.9049 20.0891 22.1446C19.7032 22.2503 19.6382 22.2543 18.7688 22.2503C17.8994 22.2462 17.8304 22.2462 17.4079 22.1365C16.3151 21.8562 15.4335 21.3078 14.8323 20.5318C14.6616 20.3124 14.3813 19.8574 14.3813 19.8006C14.3813 19.7843 14.4219 19.7478 14.4748 19.7234C14.5276 19.699 14.6373 19.6299 14.7266 19.5771C14.816 19.5243 14.9785 19.4268 15.0882 19.3699C15.1979 19.3131 15.5148 19.1262 15.791 18.9596C16.0673 18.7931 16.3191 18.659 16.3476 18.659C16.376 18.659 16.4288 18.7159 16.4694 18.7849C16.7132 19.1953 17.2819 19.7193 17.6841 19.8981C17.9319 20.0037 18.4804 20.1215 18.7444 20.1215C18.9882 20.1215 19.4351 20.0159 19.6748 19.9062C19.9307 19.7884 20.0607 19.6706 20.2151 19.4349C20.3207 19.2684 20.3329 19.2237 20.3288 18.9068C20.3288 18.6143 20.3126 18.5331 20.2313 18.399C20.0038 18.0253 19.6951 17.8303 18.4438 17.2778C17.1519 16.7049 16.571 16.3637 16.0998 15.9046C15.7504 15.5634 15.6813 15.4699 15.4619 15.0434C15.1776 14.4949 15.141 14.3162 15.1369 13.4996C15.1329 12.9268 15.1451 12.7399 15.206 12.5449C15.2913 12.2524 15.5676 11.6878 15.6935 11.5456C15.9535 11.2409 16.0469 11.1474 16.2298 10.9971C16.7823 10.5421 17.6435 10.2415 18.4682 10.2131C18.5616 10.2131 18.8704 10.2293 19.1588 10.2496C19.9876 10.3187 20.5523 10.5218 21.0966 10.9565C21.507 11.2815 22.1285 12.0453 22.0676 12.1468C22.027 12.2078 20.406 13.2884 20.3004 13.3209C20.2354 13.3412 20.1907 13.3168 20.1013 13.2112C19.5488 12.549 19.3254 12.4068 18.7891 12.3743C18.4073 12.3499 18.2041 12.3946 17.9482 12.5653C17.6801 12.744 17.5501 13.0162 17.5501 13.394C17.5541 13.9465 17.7654 14.2065 18.5454 14.5924C19.0491 14.8403 19.4798 15.0434 19.5123 15.0434C19.561 15.0434 20.6051 15.5634 20.8773 15.7259C22.1448 16.4693 22.6607 17.2331 22.7948 18.5493C22.8923 19.5406 22.612 20.4465 22.0026 21.0884V21.0884Z" fill="white"/>
</svg>
