<svg width="26" height="30" viewBox="0 0 26 30" fill="none" xmlns="http://www.w3.org/2000/svg">
<path d="M13 0.03479L-1.5248e-07 7.38912V22.0978L13 29.4521L26 22.0978V7.38912L13 0.03479Z" fill="white"/>
<path d="M2.32153 21.5903L12.571 27.388V22.8724L6.185 19.3595L2.32153 21.5903ZM1.62041 20.9554V8.83054L5.37112 10.9952V18.7883L1.62041 20.9554ZM23.7202 21.5903L13.4707 27.388V22.8724L19.8567 19.3595L23.7202 21.5903V21.5903ZM24.4213 20.9554V8.83054L20.6706 10.9952V18.7883L24.4213 20.9554V20.9554ZM23.9825 8.04608L13.4707 2.09888V6.4649L20.2048 10.169L20.2563 10.1984L23.9825 8.04608V8.04608ZM2.05922 8.04608L12.571 2.09888V6.4649L5.83689 10.169L5.78541 10.1984L2.05922 8.04608V8.04608Z" fill="#8ED6FB"/>
<path d="M13.4707 21.8452L19.7709 18.3813V11.5173L13.4707 15.1552V21.8452ZM12.571 21.8452L6.27078 18.3813V11.5173L12.571 15.1552V21.8452ZM19.3443 10.723L13.0196 7.24445L6.69488 10.723L13.0196 14.3757L19.3443 10.723" fill="#1C78C0"/>
</svg>
