<svg width="1000" height="1000" viewBox="0 0 1000 1000" fill="none" xmlns="http://www.w3.org/2000/svg">
<g clip-path="url(#clip0_1_3)">
<rect width="1000" height="1000" rx="120" fill="black"/>
<path d="M240.275 336.3L265.25 371.175L116.75 477.15V480.075L265.25 586.275L240.275 620.925L67.25 497.4V459.825L240.275 336.3ZM336.178 672H282.853L432.478 298.5H485.803L336.178 672ZM665.18 627V588.75L598.13 521.925H559.205V627H508.355V291.75L559.205 282.75V481.875H599.03L673.505 392.775H727.955L639.08 497.4L719.18 579.525V627H665.18ZM758.608 620.925L733.408 586.275L882.133 480.075V477.375L733.408 371.175L758.608 336.3L931.408 459.825V497.4L758.608 620.925Z" fill="white"/>
</g>
<defs>
<clipPath id="clip0_1_3">
<rect width="1000" height="1000" fill="white"/>
</clipPath>
</defs>
</svg>
